<?xml version="1.0" encoding="utf-8"?>
<!-- Generator: Adobe Illustrator 27.5.0, SVG Export Plug-In . SVG Version: 6.00 Build 0)  -->
<svg version="1.1" id="Layer_1" xmlns="http://www.w3.org/2000/svg" xmlns:xlink="http://www.w3.org/1999/xlink" x="0px" y="0px"
	 viewBox="0 0 1200 850" style="enable-background:new 0 0 1200 850;" xml:space="preserve">
<rect id="XMLID_00000033349613236402080130000010480463065652868994_" x="0.145" y="0.102" style="fill:#EFEFEF;" width="1199.711" height="849.795"/>
<linearGradient id="XMLID_00000172435494064143102760000000536026136668818877_" gradientUnits="userSpaceOnUse" x1="816.0941" y1="589.3497" x2="819.008" y2="527.099" gradientTransform="matrix(0.9974 -0.0727 0.0727 0.9974 -46.159 65.3884)">
	<stop  offset="0.1781" style="stop-color:#FFC201"/>
	<stop  offset="0.9553" style="stop-color:#CF2F01"/>
</linearGradient>
<polygon id="XMLID_00000099628893127325843330000003453798963673753475_" style="fill:url(#XMLID_00000172435494064143102760000000536026136668818877_);" points="
	896.124,521.607 724.472,532.322 711.182,578.678 909.073,572.325 "/>
<g id="XMLID_00000177482606745652493830000008011381223729665982_">
	<linearGradient id="SVGID_1_" gradientUnits="userSpaceOnUse" x1="664.7631" y1="559.2507" x2="701.8027" y2="575.5529">
		<stop  offset="0.1781" style="stop-color:#474747"/>
		<stop  offset="0.9553" style="stop-color:#262626"/>
	</linearGradient>
	<path style="fill:url(#SVGID_1_);" d="M682.159,591.785c-1.525-2.462-2.989-4.955-4.428-7.46c-1.438-2.506-2.855-5.023-4.242-7.554
		c-1.385-2.533-2.772-5.064-4.11-7.621c-1.36-2.546-2.698-5.102-4.004-7.674l-0.813-1.602l1.791-0.285
		c3.642-0.579,7.293-1.101,10.945-1.607c3.648-0.536,7.313-0.962,10.97-1.438c7.328-0.863,14.664-1.665,22.053-2.118
		c-7.204,1.7-14.46,3.05-21.725,4.34c-3.639,0.601-7.27,1.252-10.918,1.792c-3.643,0.57-7.289,1.124-10.943,1.622l0.978-1.886
		c1.296,2.578,2.56,5.171,3.803,7.776c1.265,2.593,2.48,5.212,3.698,7.829c1.215,2.618,2.402,5.252,3.566,7.896
		C679.943,586.439,681.082,589.096,682.159,591.785z"/>
</g>
<g id="XMLID_00000150102579996133074970000017844416891716247686_">
	
		<linearGradient id="SVGID_00000016773856293743669260000007241855299278826653_" gradientUnits="userSpaceOnUse" x1="767.6165" y1="503.572" x2="911.9181" y2="567.0834">
		<stop  offset="0.1781" style="stop-color:#474747"/>
		<stop  offset="0.9553" style="stop-color:#262626"/>
	</linearGradient>
	<path style="fill:url(#SVGID_00000016773856293743669260000007241855299278826653_);" d="M748.493,548.794
		c15.137-2.757,30.298-5.345,45.485-7.764c15.181-2.456,30.385-4.757,45.594-7.028l22.829-3.297
		c7.617-1.048,15.227-2.147,22.851-3.146c15.238-2.071,30.501-3.969,45.79-5.698c-15.136,2.76-30.298,5.351-45.484,7.768
		c-7.588,1.246-15.191,2.391-22.786,3.587l-22.808,3.436c-15.216,2.218-30.437,4.406-45.681,6.438
		C779.044,545.162,763.781,547.062,748.493,548.794z"/>
</g>
<g id="XMLID_00000168102427928635620150000002469159087141370780_">
	
		<linearGradient id="SVGID_00000117637297740833395180000002256182552116483507_" gradientUnits="userSpaceOnUse" x1="1007.1456" y1="521.0527" x2="1071.4108" y2="549.3378">
		<stop  offset="0.1781" style="stop-color:#474747"/>
		<stop  offset="0.9553" style="stop-color:#262626"/>
	</linearGradient>
	<path style="fill:url(#SVGID_00000117637297740833395180000002256182552116483507_);" d="M1012.883,509.787
		c6.212-1.291,12.442-2.462,18.682-3.565c6.239-1.112,12.484-2.175,18.74-3.17l1.25-0.199l0.123,1.294
		c0.603,6.345,1.092,12.699,1.621,19.05c0.46,6.356,0.966,12.709,1.351,19.07c0.422,6.359,0.779,12.723,1.084,19.091
		c0.315,6.367,0.556,12.74,0.678,19.123c-0.867-6.324-1.614-12.658-2.288-18.998c-0.683-6.339-1.315-12.681-1.882-19.029
		c-0.604-6.345-1.086-12.699-1.615-19.05c-0.459-6.356-0.959-12.709-1.345-19.071l1.373,1.095
		c-6.277,0.854-12.563,1.639-18.857,2.377C1025.506,508.552,1019.204,509.23,1012.883,509.787z"/>
</g>
<g id="XMLID_00000117678814506931879870000017367320581801555328_">
	
		<linearGradient id="SVGID_00000129921330698055105980000005185628846752432809_" gradientUnits="userSpaceOnUse" x1="915.4866" y1="658.0199" x2="1055.6501" y2="719.71">
		<stop  offset="0.1781" style="stop-color:#474747"/>
		<stop  offset="0.9553" style="stop-color:#262626"/>
	</linearGradient>
	<path style="fill:url(#SVGID_00000129921330698055105980000005185628846752432809_);" d="M1062.177,654.58l1.029,9.723l0.976,9.727
		c0.667,6.483,1.274,12.971,1.881,19.459l0.075,0.803l-0.823,0.113l-21.737,2.984l-21.752,2.868l-21.764,2.764l-21.776,2.675
		c-29.041,3.51-58.109,6.803-87.243,9.569c28.921-4.471,57.909-8.414,86.923-12.141l21.766-2.752l21.777-2.663l21.79-2.56
		l21.804-2.444l-0.748,0.916c-0.405-6.504-0.807-13.007-1.152-19.516l-0.54-9.761L1062.177,654.58z"/>
</g>
<g id="XMLID_00000096751397232251378060000001743850813137030826_">
	
		<linearGradient id="SVGID_00000065772764166570621680000014523835927205098665_" gradientUnits="userSpaceOnUse" x1="741.2199" y1="700.1951" x2="841.262" y2="744.2266">
		<stop  offset="0.1781" style="stop-color:#474747"/>
		<stop  offset="0.9553" style="stop-color:#262626"/>
	</linearGradient>
	<path style="fill:url(#SVGID_00000065772764166570621680000014523835927205098665_);" d="M851.064,720.248
		c-8.099,1.443-16.221,2.707-24.347,3.931l-12.198,1.767l-12.211,1.668c-8.147,1.055-16.294,2.114-24.454,3.073
		c-4.077,0.504-8.159,0.965-12.241,1.421c-4.081,0.471-8.166,0.909-12.253,1.33l-0.725,0.075l-0.295-0.618l-3.227-6.761
		l-3.187-6.781c-2.101-4.532-4.193-9.069-6.201-13.648c2.495,4.333,4.907,8.708,7.309,13.089l3.568,6.588l3.529,6.608l-1.02-0.543
		c4.065-0.596,8.133-1.174,12.204-1.719c4.07-0.561,8.14-1.116,12.216-1.628c8.145-1.073,16.303-2.047,24.46-3.024l12.246-1.381
		l12.259-1.281C834.676,721.605,842.859,720.837,851.064,720.248z"/>
</g>
<g id="XMLID_00000003794562638469343970000002699937100022341794_">
	
		<linearGradient id="SVGID_00000084521107294028234320000016357566854279209089_" gradientUnits="userSpaceOnUse" x1="693.6332" y1="646.6976" x2="735.4929" y2="665.1212">
		<stop  offset="0.1781" style="stop-color:#474747"/>
		<stop  offset="0.9553" style="stop-color:#262626"/>
	</linearGradient>
	<path style="fill:url(#SVGID_00000084521107294028234320000016357566854279209089_);" d="M727.419,681.351
		c-2.638-3.99-5.04-8.099-7.358-12.25c-2.334-4.144-4.527-8.358-6.694-12.586l-3.151-6.392c-1.005-2.154-2.055-4.285-3.015-6.461
		c-1.967-4.329-3.85-8.701-5.494-13.193c2.641,3.988,5.044,8.097,7.362,12.249c1.183,2.064,2.275,4.173,3.413,6.26l3.277,6.329
		c2.119,4.252,4.211,8.518,6.162,12.855C723.888,672.489,725.772,676.86,727.419,681.351z"/>
</g>
<linearGradient id="XMLID_00000062158121213993103600000004947416009680122768_" gradientUnits="userSpaceOnUse" x1="778.677" y1="559.1103" x2="1027.2163" y2="685.8724" gradientTransform="matrix(1.0175 -0.0755 0.0569 1.0511 -54.2847 32.25)">
	<stop  offset="0" style="stop-color:#4AB8EE"/>
	<stop  offset="1" style="stop-color:#2442C6"/>
</linearGradient>
<polygon id="XMLID_00000181067951632705832650000003704015121573770136_" style="fill:url(#XMLID_00000062158121213993103600000004947416009680122768_);" points="
	681.268,569.728 1043.363,516.307 1056.398,683.846 757.745,721.072 "/>
<polygon id="XMLID_00000139263679097137127510000011415659811701285762_" style="opacity:0.4;fill:#1E1E1E;" points="
	1030.44,687.082 1047.78,573.081 1046.898,557.029 1012.39,689.64 "/>
<polygon id="XMLID_00000039837043729317146720000013038435963396800686_" style="opacity:0.4;fill:#1E1E1E;" points="
	743.319,692.523 749.491,704.738 916.635,701.472 927.167,693.554 "/>
<g id="XMLID_00000083771266409091625210000017829091910258598585_">
	
		<linearGradient id="SVGID_00000116940548028936634910000001271501072232623238_" gradientUnits="userSpaceOnUse" x1="980.2208" y1="111.9751" x2="895.2975" y2="200.5625">
		<stop  offset="0.1781" style="stop-color:#474747"/>
		<stop  offset="0.9553" style="stop-color:#262626"/>
	</linearGradient>
	<path style="fill:url(#SVGID_00000116940548028936634910000001271501072232623238_);" d="M1052.791,183.28
		c-19.301-3.954-38.559-8.088-57.774-12.403c-9.617-2.12-19.209-4.342-28.813-6.516l-28.776-6.675l-28.74-6.827
		c-9.567-2.33-19.147-4.606-28.702-6.989c-19.128-4.687-38.213-9.559-57.256-14.612c19.301,3.951,38.56,8.083,57.776,12.399
		c9.617,2.119,19.209,4.345,28.813,6.517l28.775,6.678l28.74,6.831c9.568,2.328,19.147,4.608,28.702,6.989
		C1014.662,173.361,1033.747,178.23,1052.791,183.28z"/>
</g>
<linearGradient id="XMLID_00000081617163920852948160000014971395862992651174_" gradientUnits="userSpaceOnUse" x1="788.5724" y1="171.2766" x2="1003.3505" y2="309.3482">
	<stop  offset="0" style="stop-color:#4AB8EE"/>
	<stop  offset="1" style="stop-color:#2442C6"/>
</linearGradient>
<polygon id="XMLID_00000025421275436472766710000001095288472889029772_" style="fill:url(#XMLID_00000081617163920852948160000014971395862992651174_);" points="
	1035.08,110.237 675.028,180.874 666.868,312.547 1065.052,281.548 "/>
<g id="XMLID_00000098217179909346727520000007489223154331250070_">
	
		<linearGradient id="SVGID_00000145749035715758805990000000876856167307644330_" gradientUnits="userSpaceOnUse" x1="823.3557" y1="252.1162" x2="718.2878" y2="361.7175">
		<stop  offset="0.1781" style="stop-color:#474747"/>
		<stop  offset="0.9553" style="stop-color:#262626"/>
	</linearGradient>
	<path style="fill:url(#SVGID_00000145749035715758805990000000876856167307644330_);" d="M679.703,256.588l-3.057,13.117
		l-3.113,13.102c-1.044,4.366-2.057,8.74-3.14,13.095l-3.206,13.078l-0.84-1.153l28.634,1.41l28.625,1.565l28.618,1.669l28.612,1.77
		c19.073,1.206,38.142,2.487,57.204,3.884c19.066,1.333,38.123,2.797,57.172,4.413c-19.105-0.682-38.201-1.516-57.288-2.481
		c-19.092-0.901-38.176-1.919-57.256-3.01l-28.618-1.677l-28.612-1.778l-28.605-1.882l-28.596-2.037l-1.129-0.08l0.289-1.073
		l3.5-13.003c1.152-4.338,2.374-8.658,3.565-12.986l3.593-12.979L679.703,256.588z"/>
</g>
<linearGradient id="XMLID_00000134207351916135873610000005931867354954834347_" gradientUnits="userSpaceOnUse" x1="805.4283" y1="440.3024" x2="854.6118" y2="341.9355">
	<stop  offset="0.1781" style="stop-color:#FFC201"/>
	<stop  offset="0.9553" style="stop-color:#FF5E01"/>
</linearGradient>
<polygon id="XMLID_00000040572607077547670430000002717051621735209633_" style="fill:url(#XMLID_00000134207351916135873610000005931867354954834347_);" points="
	786.708,391.035 887.967,361.934 823.447,328.392 "/>
<polygon id="XMLID_00000067939295436148764660000000572573976658253723_" style="opacity:0.6;fill:#5E2407;" points="
	800.373,367.735 886.529,361.719 814.026,344.454 "/>
<linearGradient id="XMLID_00000021834770250049253920000014918897577273017008_" gradientUnits="userSpaceOnUse" x1="960.7512" y1="401.2573" x2="787.6409" y2="323.4158">
	<stop  offset="0.1781" style="stop-color:#FFC201"/>
	<stop  offset="0.9553" style="stop-color:#FF5E01"/>
</linearGradient>
<polygon id="XMLID_00000071530780695480073060000014517017954776394669_" style="fill:url(#XMLID_00000021834770250049253920000014918897577273017008_);" points="
	703.464,333.105 887.965,361.944 867.213,311.656 "/>
<polygon id="XMLID_00000116195507064027572890000006317244263001575870_" style="opacity:0.6;fill:#5E2407;" points="
	703.464,333.105 876.682,334.601 867.213,311.656 "/>
<g id="XMLID_00000122700002112320845480000002806868956363845010_">
	
		<linearGradient id="XMLID_00000119835542732447804030000002312891216692548748_" gradientUnits="userSpaceOnUse" x1="140.3082" y1="189.2494" x2="434.3243" y2="297.119" gradientTransform="matrix(0.9983 -0.0579 0.0579 0.9983 -23.4299 26.4184)">
		<stop  offset="1.065558e-08" style="stop-color:#FF5597"/>
		<stop  offset="1" style="stop-color:#CE111F"/>
	</linearGradient>
	
		<polygon id="XMLID_00000010275424836279771600000004666723026478213005_" style="fill:url(#XMLID_00000119835542732447804030000002312891216692548748_);" points="
		553.579,191.701 350.623,282.789 289.619,310.173 277.781,315.492 277.732,315.507 241,331.995 257.462,388.702 258.146,391.035 
		166.69,327.357 171.584,303.916 181.021,258.738 211.509,112.719 	"/>
	<path id="XMLID_00000139981205215246985530000008578974735224052104_" style="opacity:0.4;fill:#1E1E1E;" d="M350.623,282.789
		l-61.004,27.384c-13.345-2.584-29.275-7.753-29.275-7.753l-90.773,11.137l11.45-54.819c41.123-4.484,119.472-12.214,126.432-13.405
		C315.351,243.977,341.414,272.088,350.623,282.789z"/>
	<g id="XMLID_00000146495481954236931500000006324515731796665218_">
		<g id="XMLID_00000114772925481124641280000013074413319923561363_">
			
				<linearGradient id="SVGID_00000113351236101970454080000006117493046660514458_" gradientUnits="userSpaceOnUse" x1="192.2501" y1="90.6255" x2="284.2503" y2="197.6628">
				<stop  offset="0.1781" style="stop-color:#FFC201"/>
				<stop  offset="0.9553" style="stop-color:#FF5E01"/>
			</linearGradient>
			<path style="fill:url(#SVGID_00000113351236101970454080000006117493046660514458_);" d="M116.985,195.999
				c0.038-6.532,0.109-13.064,0.215-19.594l0.278-19.592l0.009-0.629l0.641-0.11c21.675-3.725,43.329-7.582,65.028-11.163
				l32.547-5.376l32.566-5.259c10.856-1.75,21.719-3.457,32.585-5.14c10.861-1.718,21.737-3.341,32.612-4.973
				c21.744-3.303,43.505-6.497,65.301-9.475c-21.623,4.047-43.282,7.878-64.958,11.6c-10.835,1.881-21.668,3.769-32.517,5.564
				c-10.843,1.83-21.69,3.635-32.544,5.397l-32.563,5.279l-32.582,5.162c-21.721,3.444-43.487,6.611-65.231,9.912l0.649-0.738
				l-0.988,19.569C117.72,182.956,117.369,189.478,116.985,195.999z"/>
		</g>
		<g id="XMLID_00000150092729868800312380000015054957997571881137_">
			
				<linearGradient id="SVGID_00000046320941554493763340000015027270035286148743_" gradientUnits="userSpaceOnUse" x1="458.0213" y1="87.235" x2="492.6093" y2="127.4763">
				<stop  offset="0.1781" style="stop-color:#FFC201"/>
				<stop  offset="0.9553" style="stop-color:#FF5E01"/>
			</linearGradient>
			<path style="fill:url(#SVGID_00000046320941554493763340000015027270035286148743_);" d="M439.536,104.858
				c4.678-1.216,9.382-2.276,14.098-3.259c4.715-0.988,9.442-1.902,14.179-2.755c2.365-0.449,4.74-0.837,7.112-1.24
				c2.373-0.398,4.743-0.816,7.123-1.169l7.135-1.097l7.151-1l1.272-0.178l0.22,1.192l1.076,5.824
				c0.369,1.939,0.673,3.892,1.01,5.838c0.341,1.945,0.618,3.904,0.93,5.856c0.285,1.957,0.558,3.918,0.795,5.885
				c-0.612-1.885-1.188-3.779-1.752-5.675c-0.537-1.902-1.109-3.796-1.617-5.704c-0.512-1.907-1.056-3.808-1.536-5.722l-1.47-5.737
				l1.492,1.014l-7.101,1.306l-7.117,1.209c-2.37,0.416-4.751,0.767-7.129,1.137c-2.378,0.366-4.754,0.747-7.14,1.066
				c-4.764,0.684-9.539,1.307-14.325,1.856C449.157,104.059,444.359,104.536,439.536,104.858z"/>
		</g>
		<g id="XMLID_00000028284887624808426140000008492517240642375316_">
			
				<linearGradient id="SVGID_00000137813038898083253240000003948109436611715252_" gradientUnits="userSpaceOnUse" x1="369.2652" y1="233.762" x2="480.0335" y2="362.6351">
				<stop  offset="0.1781" style="stop-color:#FFC201"/>
				<stop  offset="0.9553" style="stop-color:#FF5E01"/>
			</linearGradient>
			<path style="fill:url(#SVGID_00000137813038898083253240000003948109436611715252_);" d="M530.949,251.837l3.254,13.357
				l3.194,13.371l3.186,13.372l3.102,13.391l0.258,1.114l-1.164,0.019l-32.098,0.518l-32.098,0.36
				c-21.399,0.173-42.799,0.32-64.199,0.365c-21.4,0.06-42.8,0.038-64.201-0.113c-21.401-0.085-42.802-0.302-64.205-0.694
				c21.397-0.62,42.795-1.066,64.193-1.378c21.398-0.38,42.797-0.63,64.197-0.797c21.399-0.182,42.799-0.263,64.199-0.319
				l32.101,0.018l32.101,0.176l-0.905,1.133l-2.811-13.455l-2.727-13.474l-2.719-13.475L530.949,251.837z"/>
		</g>
		<g id="XMLID_00000144324527016470915050000009947355420334414760_">
			
				<linearGradient id="SVGID_00000173868377558137425580000017324231330754577573_" gradientUnits="userSpaceOnUse" x1="115.707" y1="254.5428" x2="183.3904" y2="333.2887">
				<stop  offset="0.1781" style="stop-color:#FFC201"/>
				<stop  offset="0.9553" style="stop-color:#FF5E01"/>
			</linearGradient>
			<path style="fill:url(#SVGID_00000173868377558137425580000017324231330754577573_);" d="M211.834,307.292
				c-8.203,0.467-16.407,0.793-24.611,1.045c-4.102,0.143-8.204,0.245-12.306,0.341c-4.102,0.111-8.204,0.192-12.307,0.253
				c-8.204,0.166-16.41,0.214-24.615,0.293c-8.205,0.011-16.41,0.077-24.616-0.002l-1.476-0.014l0.065-1.435
				c0.193-4.275,0.359-8.55,0.595-12.824c0.226-4.274,0.425-8.548,0.692-12.82c0.243-4.273,0.509-8.545,0.804-12.817
				c0.286-4.272,0.611-8.542,0.971-12.811c0.083,4.284,0.132,8.566,0.141,12.847c0.018,4.281,0.008,8.562-0.025,12.842
				c-0.009,4.281-0.086,8.559-0.137,12.838c-0.041,4.28-0.152,8.557-0.235,12.835l-1.41-1.449c8.204-0.167,16.41-0.188,24.615-0.264
				c8.205-0.008,16.411-0.048,24.616,0.03c4.103,0.017,8.206,0.054,12.309,0.121c4.103,0.052,8.206,0.111,12.309,0.209
				C195.42,306.674,203.626,306.913,211.834,307.292z"/>
		</g>
	</g>
	
		<linearGradient id="XMLID_00000101819681406148249820000010737726565044285596_" gradientUnits="userSpaceOnUse" x1="229.5829" y1="46.0964" x2="537.4312" y2="397.923" gradientTransform="matrix(1 0.0088 -0.0088 1 5.2601 70.8037)">
		<stop  offset="0.1781" style="stop-color:#FFC201"/>
		<stop  offset="0.9553" style="stop-color:#FF5E01"/>
	</linearGradient>
	
		<polygon id="XMLID_00000053504169139045591120000007106608677181918612_" style="fill:url(#XMLID_00000101819681406148249820000010737726565044285596_);" points="
		488.355,106.444 128.374,164.685 124.052,298.427 530.164,296.264 	"/>
	<polygon id="XMLID_00000055696280505156008760000001366436031226240940_" style="opacity:0.2;fill:#1E1E1E;" points="
		148.879,290.749 256.22,299.101 266.52,294.372 510.265,296.37 515.1,227.304 146.996,161.771 143.105,162.302 	"/>
	
		<linearGradient id="XMLID_00000059995104804229603600000010098334554754868643_" gradientUnits="userSpaceOnUse" x1="259.9016" y1="93.399" x2="529.0981" y2="391.2335" gradientTransform="matrix(0.9983 -0.0579 0.0579 0.9983 -23.4299 26.4184)">
		<stop  offset="0" style="stop-color:#4AB8EE"/>
		<stop  offset="1" style="stop-color:#2442C6"/>
	</linearGradient>
	
		<polygon id="XMLID_00000034804634742320245400000002442565495631730051_" style="fill:url(#XMLID_00000059995104804229603600000010098334554754868643_);" points="
		499.732,328.202 152.801,284.799 142.581,141.583 531.078,122.397 	"/>
	<g id="XMLID_00000059999037240312324780000000617904918698163365_">
		<g id="XMLID_00000148622765269110248340000018276817941595586969_">
			<path style="fill:#FFFFFF;" d="M158.033,215.023c-1.585-7.372-2.135-14.959-1.605-22.482
				C158.021,199.912,158.555,207.5,158.033,215.023L158.033,215.023z"/>
		</g>
		<g id="XMLID_00000129922531888383423670000012387675659951293593_">
			<path style="fill:#FFFFFF;" d="M155.157,174.727c-0.84-7.179-1.675-17.365-2.343-24.656c6.591-0.48,13.193-0.763,19.789-1.149
				c19.017-1.013,38.601-1.835,57.645-2.115c-18.979,1.597-38.549,2.709-57.573,3.575c-6.404,0.257-12.803,0.614-19.211,0.79
				l0.542-0.612C154.442,157.667,154.907,167.708,155.157,174.727L155.157,174.727z"/>
		</g>
		<g id="XMLID_00000014629177832543754440000007329098706133730437_">
			<path style="fill:#FFFFFF;" d="M267.906,144.947c39.048-2.96,78.601-4.922,117.751-5.815
				C346.609,142.1,307.055,144.046,267.906,144.947L267.906,144.947z"/>
		</g>
		<g id="XMLID_00000070840366211923802230000013455166518037738410_">
			<path style="fill:#FFFFFF;" d="M420.277,137.422c23.698-1.743,50.351-3.193,74.199-4.426c0,0,24.749-1.151,24.749-1.151
				l0.848-0.039l-0.131,0.833l-2.12,13.455c-2.032,12.522-4.554,27.81-6.766,40.302c1.004-8.027,2.531-19.12,3.637-27.001
				c0.919-6.727,2.886-20.249,3.884-26.963c0,0,0.716,0.793,0.716,0.793l-24.742,1.293
				C470.673,135.649,444.062,136.811,420.277,137.422L420.277,137.422z"/>
		</g>
		<g id="XMLID_00000141437250486243584800000013075052537977561022_">
			<path style="fill:#FFFFFF;" d="M505.862,220.495c-1.384,16.099-3.805,32.05-7.284,47.829
				C499.953,252.224,502.39,236.276,505.862,220.495L505.862,220.495z"/>
		</g>
		<g id="XMLID_00000160870282624199631150000010492316203459639480_">
			<path style="fill:#FFFFFF;" d="M494.922,292.326c-0.751,7.177-2.252,17.998-3.213,25.25c0,0-0.08,0.595-0.08,0.595l-0.616-0.069
				c-22.705-2.569-45.375-5.469-67.932-9.129c22.764,2.01,45.45,4.784,68.088,7.888c0,0-0.696,0.526-0.696,0.526
				C491.671,310.139,493.542,299.447,494.922,292.326L494.922,292.326z"/>
		</g>
		<g id="XMLID_00000015353507110278639720000008912382464481644435_">
			<path style="fill:#FFFFFF;" d="M367.773,302.054c-21.493-1.625-42.86-4.289-64.09-8.018
				C325.177,295.653,346.542,298.334,367.773,302.054L367.773,302.054z"/>
		</g>
		<g id="XMLID_00000170987816575236968570000010951533916144517804_">
			<path style="fill:#FFFFFF;" d="M266.229,289.351c-14.683-0.773-29.247-2.586-43.666-5.463
				C237.246,284.652,251.808,286.483,266.229,289.351L266.229,289.351z"/>
		</g>
		<g id="XMLID_00000116946715557525605060000006784265260173965754_">
			<path style="fill:#FFFFFF;" d="M206.323,281.856c-10.594-0.938-22.457-2.198-33.019-3.446c0,0-10.986-1.311-10.986-1.311
				l-0.598-0.071c-0.392-4.707-0.688-9.421-0.996-14.134c-0.838-12.567-1.772-28.089-2.173-40.613
				c1.368,12.43,2.674,27.968,3.616,40.51c0.348,4.505,0.709,9.009,0.984,13.519l-0.648-0.683l10.97,1.436
				C184.018,278.454,195.822,280.155,206.323,281.856L206.323,281.856z"/>
		</g>
	</g>
	<polygon id="XMLID_00000067219632034508073240000003959239152871902378_" style="opacity:0.4;fill:#1E1E1E;" points="241,331.995 
		257.462,388.702 235.049,335.075 193.576,326.221 236.478,329.574 277.732,315.507 	"/>
</g>
<g id="XMLID_00000022546450908424411690000011089906193394861220_">
	
		<text transform="matrix(1 0 0 1 239.3472 199.6343)" style="fill:#FFFFFF; font-family:'Montserrat-ExtraBold'; font-size:40.042px;">join our</text>
</g>
<text id="XMLID_00000059275652864997411570000007924857015804611993_" transform="matrix(1 0 0 1 260.0972 256.5005)" style="fill:#FFFFFF; font-family:'Montserrat-ExtraBold'; font-size:58.5977px;">Team</text>
<g id="XMLID_00000097493008422224828670000015746140363535077045_">
	
		<linearGradient id="SVGID_00000168084458159680266500000005054680992468647851_" gradientUnits="userSpaceOnUse" x1="308.7462" y1="326.2909" x2="410.5237" y2="326.2909">
		<stop  offset="0.1781" style="stop-color:#FFC201"/>
		<stop  offset="0.9553" style="stop-color:#FF5E01"/>
	</linearGradient>
	<path style="fill:url(#SVGID_00000168084458159680266500000005054680992468647851_);" d="M410.274,337.146
		c-1.301-0.11-2.556-0.782-3.457-1.781c-0.899-0.998-1.517-2.182-2.278-3.178c-0.763-0.984-1.671-1.786-2.812-2.038
		c-1.14-0.286-2.32-0.188-3.302,0.337c-1.004,0.517-1.871,1.416-2.868,2.307c-0.992,0.872-2.263,1.846-3.859,2.055
		c-1.544,0.207-3.111-0.095-4.467-0.984c-1.351-0.904-2.117-2.226-2.809-3.311c-0.679-1.09-1.313-2.063-2.123-2.563
		c-0.771-0.507-1.858-0.728-2.789-0.606c-0.924,0.105-1.764,0.69-2.69,1.475c-0.936,0.788-1.917,1.834-3.401,2.557
		c-0.736,0.348-1.582,0.596-2.422,0.62c-0.836,0.045-1.638-0.079-2.429-0.3c-0.394-0.116-0.785-0.302-1.167-0.474
		c-0.351-0.231-0.747-0.427-1.046-0.712c-0.668-0.526-1.139-1.157-1.575-1.757c-0.817-1.205-1.37-2.358-2.04-3.152
		c-0.668-0.779-1.367-1.211-2.351-1.367c-0.982-0.157-1.781,0.025-2.663,0.555c-0.89,0.545-1.78,1.458-2.946,2.34
		c-0.603,0.431-1.261,0.872-2.06,1.158c-0.377,0.169-0.814,0.231-1.221,0.337c-0.417,0.033-0.848,0.093-1.257,0.069
		c-0.82-0.045-1.619-0.185-2.397-0.499c-0.79-0.289-1.508-0.8-2.094-1.365c-1.168-1.162-1.766-2.466-2.399-3.509
		c-0.627-1.036-1.235-1.86-2.08-2.248c-0.845-0.41-1.944-0.549-2.835-0.309c-0.926,0.221-1.837,0.937-2.83,1.755
		c-1.004,0.808-2.154,1.817-3.727,2.236c-1.571,0.404-3.152,0.188-4.549-0.505c-1.443-0.714-2.335-2.041-2.996-3.186
		c-0.659-1.161-1.193-2.292-1.982-3.098c-0.763-0.809-1.85-1.278-3.021-1.371c-1.161-0.125-2.276,0.345-3.314,1.033
		c-1.039,0.7-2.004,1.623-3.176,2.281c-1.174,0.658-2.579,0.892-3.846,0.579c1.305,0.155,2.586-0.239,3.599-0.975
		c1.033-0.727,1.876-1.706,2.908-2.569c1.013-0.857,2.391-1.578,3.86-1.545c1.418-0.016,2.918,0.467,4.034,1.469
		c1.108,0.993,1.753,2.234,2.449,3.272c0.69,1.033,1.416,1.911,2.371,2.292c0.949,0.389,2.105,0.488,3.034,0.185
		c0.957-0.287,1.825-1.06,2.779-1.919c0.963-0.851,2.069-1.912,3.667-2.416c1.608-0.476,3.246-0.308,4.751,0.356
		c1.564,0.689,2.575,2.076,3.301,3.214c0.722,1.156,1.305,2.221,2.023,2.868c0.184,0.147,0.353,0.319,0.555,0.416
		c0.182,0.134,0.392,0.222,0.605,0.304c0.426,0.172,0.923,0.25,1.396,0.276c0.941,0.051,1.734-0.331,2.641-0.996
		c0.907-0.679,1.824-1.667,3.135-2.514c0.669-0.407,1.43-0.787,2.279-0.953c0.413-0.122,0.843-0.106,1.266-0.15
		c0.416,0.001,0.823,0.05,1.234,0.088c0.401,0.093,0.802,0.182,1.197,0.306c0.387,0.175,0.798,0.302,1.153,0.543
		c0.749,0.429,1.359,1.025,1.861,1.626c0.979,1.222,1.529,2.45,2.173,3.389c0.645,0.924,1.278,1.539,2.18,1.798
		c0.458,0.127,0.951,0.213,1.412,0.189c0.46-0.009,0.889-0.116,1.33-0.306c0.887-0.378,1.78-1.203,2.831-2.066
		c1.05-0.847,2.447-1.836,4.147-1.999c1.638-0.152,3.244,0.207,4.615,1.171c1.358,0.982,2.067,2.342,2.709,3.457
		c0.629,1.12,1.206,2.129,2.019,2.713c0.785,0.585,1.91,0.865,2.935,0.802c1.029-0.051,1.998-0.653,2.981-1.411
		c0.99-0.76,1.997-1.731,3.362-2.319c1.376-0.595,2.951-0.576,4.29-0.109c1.403,0.435,2.477,1.56,3.164,2.695
		c0.702,1.147,1.188,2.344,1.934,3.364C407.9,336.094,408.988,336.876,410.274,337.146z"/>
</g>
<g id="XMLID_00000072271130107844220080000009726043008339301793_">
	
		<linearGradient id="SVGID_00000078036528043964045120000001092599783334432698_" gradientUnits="userSpaceOnUse" x1="216.5173" y1="106.9428" x2="318.295" y2="106.9428">
		<stop  offset="0.1781" style="stop-color:#FFC201"/>
		<stop  offset="0.9553" style="stop-color:#FF5E01"/>
	</linearGradient>
	<path style="fill:url(#SVGID_00000078036528043964045120000001092599783334432698_);" d="M318.045,117.798
		c-1.301-0.11-2.556-0.782-3.458-1.781c-0.899-0.998-1.517-2.182-2.278-3.178c-0.763-0.984-1.671-1.786-2.812-2.038
		c-1.14-0.286-2.32-0.188-3.302,0.337c-1.004,0.517-1.871,1.416-2.868,2.307c-0.992,0.872-2.263,1.846-3.859,2.055
		c-1.544,0.207-3.111-0.095-4.467-0.984c-1.351-0.904-2.117-2.226-2.809-3.311c-0.679-1.09-1.313-2.063-2.123-2.563
		c-0.771-0.507-1.858-0.728-2.789-0.606c-0.924,0.104-1.764,0.69-2.69,1.475c-0.936,0.788-1.917,1.834-3.401,2.557
		c-0.736,0.348-1.582,0.596-2.422,0.62c-0.836,0.045-1.638-0.079-2.429-0.3c-0.394-0.116-0.785-0.302-1.167-0.474
		c-0.351-0.231-0.747-0.427-1.046-0.712c-0.668-0.526-1.139-1.157-1.575-1.757c-0.817-1.205-1.37-2.358-2.04-3.152
		c-0.668-0.779-1.367-1.211-2.351-1.367c-0.982-0.157-1.781,0.025-2.663,0.555c-0.89,0.545-1.78,1.458-2.946,2.34
		c-0.603,0.431-1.261,0.872-2.06,1.158c-0.377,0.169-0.814,0.231-1.221,0.337c-0.417,0.033-0.848,0.093-1.257,0.069
		c-0.82-0.045-1.619-0.185-2.397-0.499c-0.79-0.289-1.508-0.8-2.094-1.365c-1.168-1.162-1.766-2.466-2.399-3.509
		c-0.627-1.036-1.235-1.86-2.08-2.248c-0.845-0.41-1.944-0.549-2.835-0.309c-0.926,0.221-1.837,0.937-2.83,1.755
		c-1.004,0.808-2.154,1.817-3.727,2.236c-1.571,0.404-3.152,0.188-4.549-0.505c-1.443-0.714-2.335-2.041-2.996-3.186
		c-0.659-1.161-1.193-2.292-1.982-3.098c-0.763-0.809-1.85-1.278-3.021-1.371c-1.161-0.125-2.276,0.345-3.314,1.033
		c-1.039,0.7-2.004,1.623-3.176,2.281c-1.174,0.658-2.579,0.892-3.846,0.579c1.305,0.155,2.586-0.239,3.599-0.975
		c1.033-0.727,1.876-1.706,2.908-2.569c1.013-0.857,2.391-1.578,3.86-1.545c1.418-0.016,2.918,0.467,4.034,1.469
		c1.108,0.993,1.753,2.234,2.449,3.272c0.69,1.033,1.416,1.911,2.371,2.292c0.949,0.389,2.105,0.488,3.034,0.185
		c0.957-0.287,1.825-1.06,2.779-1.919c0.963-0.851,2.069-1.912,3.667-2.416c1.608-0.476,3.246-0.308,4.751,0.356
		c1.564,0.689,2.575,2.076,3.301,3.214c0.722,1.156,1.305,2.221,2.023,2.868c0.184,0.147,0.353,0.319,0.555,0.416
		c0.182,0.134,0.392,0.222,0.605,0.304c0.426,0.172,0.923,0.25,1.396,0.276c0.941,0.051,1.734-0.331,2.641-0.996
		c0.907-0.679,1.824-1.667,3.135-2.514c0.669-0.407,1.43-0.787,2.279-0.953c0.413-0.122,0.843-0.106,1.266-0.15
		c0.416,0.001,0.823,0.05,1.234,0.088c0.401,0.093,0.802,0.182,1.197,0.306c0.387,0.175,0.798,0.302,1.153,0.543
		c0.749,0.429,1.359,1.025,1.861,1.626c0.979,1.222,1.529,2.45,2.173,3.389c0.645,0.924,1.278,1.539,2.18,1.798
		c0.458,0.127,0.951,0.213,1.412,0.189c0.46-0.009,0.889-0.116,1.33-0.306c0.887-0.378,1.78-1.203,2.83-2.066
		c1.05-0.847,2.447-1.836,4.147-1.999c1.638-0.152,3.244,0.207,4.615,1.171c1.358,0.982,2.067,2.342,2.709,3.457
		c0.629,1.12,1.206,2.129,2.019,2.713c0.785,0.585,1.91,0.865,2.935,0.802c1.029-0.051,1.998-0.653,2.981-1.411
		c0.99-0.76,1.997-1.731,3.362-2.319c1.376-0.595,2.951-0.576,4.29-0.109c1.403,0.435,2.477,1.56,3.164,2.695
		c0.702,1.147,1.188,2.344,1.934,3.364C315.671,116.745,316.759,117.528,318.045,117.798z"/>
</g>
<g id="XMLID_00000099619898773017550830000002377810065725166723_">
	<g id="XMLID_00000077289272287386819890000010448092585092398261_">
		<g id="XMLID_00000074437303490480599660000009418055200109724345_">
			<path style="fill:none;" d="M822.728,129.257"/>
		</g>
		<g id="XMLID_00000102517803029967646300000013672324930726968982_">
			
				<linearGradient id="SVGID_00000059274473243986612040000016266334193251313036_" gradientUnits="userSpaceOnUse" x1="1062.8418" y1="191.5563" x2="1041.7776" y2="213.5294">
				<stop  offset="0.1781" style="stop-color:#474747"/>
				<stop  offset="0.9553" style="stop-color:#262626"/>
			</linearGradient>
			<path style="fill:url(#SVGID_00000059274473243986612040000016266334193251313036_);" d="M1051.829,221.805
				c-0.522-3.225-0.758-6.444-0.892-9.66c-0.133-3.216-0.166-6.429-0.083-9.639c0.073-3.211,0.269-6.418,0.56-9.623
				c0.293-3.205,0.69-6.408,1.377-9.603c0.526,3.226,0.763,6.444,0.896,9.66c0.131,3.216,0.167,6.429,0.079,9.639
				c-0.078,3.21-0.271,6.418-0.564,9.623C1052.907,215.407,1052.511,218.61,1051.829,221.805z"/>
		</g>
		<g id="XMLID_00000082351948338819756290000017268836268998678203_">
			
				<linearGradient id="SVGID_00000084526661997129721020000004298288390751748515_" gradientUnits="userSpaceOnUse" x1="753.2421" y1="99.751" x2="719.6897" y2="134.7511">
				<stop  offset="0.1781" style="stop-color:#474747"/>
				<stop  offset="0.9553" style="stop-color:#262626"/>
			</linearGradient>
			<path style="fill:url(#SVGID_00000084526661997129721020000004298288390751748515_);" d="M769.064,116.656
				c-4.29-0.581-8.55-1.292-12.79-2.085c-4.243-0.783-8.471-1.627-12.685-2.534c-2.111-0.436-4.215-0.902-6.314-1.388
				c-2.099-0.485-4.206-0.938-6.3-1.449c-4.19-1.007-8.378-2.026-12.546-3.127l1.522-0.921c-0.51,1.864-1.075,3.715-1.621,5.57
				c-0.539,1.857-1.113,3.705-1.693,5.551c-1.154,3.695-2.357,7.376-3.692,11.024c0.589-3.84,1.311-7.645,2.083-11.438
				c0.382-1.897,0.772-3.793,1.195-5.679c0.416-1.889,0.814-3.782,1.266-5.661l0.283-1.176l1.239,0.255
				c4.223,0.869,8.426,1.82,12.626,2.784c2.102,0.473,4.19,1.006,6.286,1.506c2.096,0.499,4.188,1.018,6.272,1.567
				c4.177,1.063,8.339,2.189,12.487,3.376C760.833,114.007,764.964,115.267,769.064,116.656z"/>
		</g>
		<g id="XMLID_00000021816272720206102150000001998534173821151105_">
			
				<linearGradient id="SVGID_00000141445679135134651530000010778607251422621315_" gradientUnits="userSpaceOnUse" x1="1052.1019" y1="281.6493" x2="985.4384" y2="351.1891">
				<stop  offset="0.1781" style="stop-color:#474747"/>
				<stop  offset="0.9553" style="stop-color:#262626"/>
			</linearGradient>
			<path style="fill:url(#SVGID_00000141445679135134651530000010778607251422621315_);" d="M961.309,326.52
				c7.338,0.051,14.668,0.237,21.994,0.481c3.664,0.113,7.326,0.245,10.987,0.403c3.662,0.147,7.323,0.292,10.983,0.48
				c7.321,0.332,14.638,0.739,21.953,1.16c7.315,0.424,14.628,0.903,21.939,1.402l-1.444,1.326
				c0.293-8.412,0.635-16.823,1.057-25.231c0.425-8.409,0.91-16.816,1.565-25.219c0.235,8.425,0.3,16.846,0.305,25.265
				c0.001,8.419-0.077,16.836-0.203,25.253l-0.021,1.4l-1.423-0.074c-7.318-0.382-14.635-0.784-21.948-1.241
				c-7.313-0.46-14.626-0.934-21.934-1.483c-3.655-0.252-7.308-0.547-10.961-0.841c-3.654-0.282-7.305-0.591-10.956-0.919
				C975.899,328.045,968.6,327.35,961.309,326.52z"/>
		</g>
	</g>
	
		<linearGradient id="XMLID_00000102518586555950104500000007181067343099179411_" gradientUnits="userSpaceOnUse" x1="836.4194" y1="173.1251" x2="913.8736" y2="419.4296" gradientTransform="matrix(0.9985 0.0543 -0.0543 0.9985 4.3243 -92.4147)">
		<stop  offset="1.065558e-08" style="stop-color:#FF5597"/>
		<stop  offset="1" style="stop-color:#CE111F"/>
	</linearGradient>
	
		<polygon id="XMLID_00000133529918787123829960000008064491766983841685_" style="fill:url(#XMLID_00000102518586555950104500000007181067343099179411_);" points="
		725.446,115.849 1043.345,190.497 1040.06,322.067 678.031,300.261 	"/>
	<polygon id="XMLID_00000143590939078317977690000012755847541871927981_" style="opacity:0.6;fill:#5E2407;" points="
		1025.073,316.324 935.129,315.874 912.571,314.325 695.77,301.329 695.146,233.26 1026.894,186.732 1030.336,187.442 	"/>
	
		<linearGradient id="XMLID_00000128447047168322590320000016250723854726959499_" gradientUnits="userSpaceOnUse" x1="626.8167" y1="184.3828" x2="875.5093" y2="459.5321" gradientTransform="matrix(-0.9937 -0.112 -0.112 0.9937 1590.6893 20.2532)">
		<stop  offset="0.1781" style="stop-color:#FFC201"/>
		<stop  offset="0.9553" style="stop-color:#FF5E01"/>
	</linearGradient>
	
		<polygon id="XMLID_00000147195910276326545260000006715626431626876819_" style="fill:url(#XMLID_00000128447047168322590320000016250723854726959499_);" points="
		703.464,333.105 1015.15,307.288 1031.909,167.118 686.497,129.447 	"/>
	<g id="XMLID_00000054229153059225451330000014886998295673236397_">
		<g id="XMLID_00000142864942803452730610000008703504634826786238_">
			<path style="fill:#FFFFFF;" d="M1014.21,238.501c-0.119-7.411,0.761-14.831,2.631-22.004
				C1016.967,223.908,1016.072,231.327,1014.21,238.501L1014.21,238.501z"/>
		</g>
		<g id="XMLID_00000057827753618899251910000014972380779816209329_">
			<path style="fill:#FFFFFF;" d="M1018.925,199.062c0.564-6.843,1.517-16.75,2.258-23.681c0,0,0.503,0.633,0.503,0.633
				c-5.701-0.528-11.391-1.16-17.087-1.735c-16.917-1.796-34.308-3.828-51.145-6.279c16.969,1.236,34.39,3,51.296,4.893
				c5.88,0.689,11.766,1.318,17.64,2.063C1021.379,182.112,1020.093,192.016,1018.925,199.062L1018.925,199.062z"/>
		</g>
		<g id="XMLID_00000013915060263664712390000006742054827180274560_">
			<path style="fill:#FFFFFF;" d="M919.973,164.349c-34.867-2.823-70.037-6.651-104.692-11.418
				C850.148,155.746,885.317,159.59,919.973,164.349L919.973,164.349z"/>
		</g>
		<g id="XMLID_00000149351998625887772860000003558928259011180441_">
			<path style="fill:#FFFFFF;" d="M784.5,149.574c-21.219-1.788-44.779-4.22-66.08-6.492c-7.339-0.756-14.664-1.635-21.996-2.446
				l0.733-0.715c0.558,6.643,1.557,20.018,2.018,26.666c0.489,6.637,1.36,20.043,1.76,26.688c-1.268-11.85-2.834-28.059-3.94-39.923
				c0,0-1.161-13.32-1.161-13.32l-0.07-0.801c7.602,0.822,15.213,1.565,22.809,2.439C739.888,144.058,763.359,146.729,784.5,149.574
				L784.5,149.574z"/>
		</g>
		<g id="XMLID_00000111904790045541985420000015744900929898726562_">
			<path style="fill:#FFFFFF;" d="M703.747,227.019c2.308,15.691,3.631,31.473,3.943,47.33
				C705.374,258.659,704.067,242.876,703.747,227.019L703.747,227.019z"/>
		</g>
		<g id="XMLID_00000015346845317295641070000008039403497661587859_">
			<path style="fill:#FFFFFF;" d="M709.668,298.101c0.897,7.16,1.969,17.554,2.688,24.843c0,0-0.665-0.563-0.665-0.563
				c20.114-1.829,41.025-3.566,61.152-4.447c-19.982,2.444-40.923,4.169-61.05,5.675c0,0-0.626,0.048-0.626,0.048l-0.04-0.611
				C710.676,315.701,709.927,305.355,709.668,298.101L709.668,298.101z"/>
		</g>
		<g id="XMLID_00000031895685130132207630000014028693972948091565_">
			<path style="fill:#FFFFFF;" d="M822.532,313.818c19.022-2.567,38.393-4.18,57.579-4.769
				C861.09,311.624,841.717,313.221,822.532,313.818L822.532,313.818z"/>
		</g>
		<g id="XMLID_00000072271109334836879320000015505657023228014483_">
			<path style="fill:#FFFFFF;" d="M913.76,306.262c12.991-2.077,26.074-3.169,39.23-3.25
				C940.001,305.097,926.916,306.173,913.76,306.262L913.76,306.262z"/>
		</g>
		<g id="XMLID_00000039112602479485684720000009555139014922294931_">
			<path style="fill:#FFFFFF;" d="M967.581,301.804c12.904-1.552,26.411-2.831,39.395-3.954c0,0-0.627,0.604-0.627,0.604
				l0.754-6.621c1.812-14.679,3.943-31.649,6.259-46.23c-1.182,14.705-3.12,31.717-4.816,46.402c0,0-0.829,6.612-0.829,6.612
				l-0.07,0.562l-0.557,0.043C994.088,300.245,980.574,301.216,967.581,301.804L967.581,301.804z"/>
		</g>
	</g>
</g>
<g id="XMLID_00000111890075817682554210000011747714696966249375_">
	
		<text transform="matrix(0.985 -0.1728 0.1728 0.985 931.4489 154.4924)" style="fill:#FFFFFF; font-family:'Montserrat-ExtraBold'; font-size:23.7353px;">we are</text>
</g>
<g id="XMLID_00000183225590553309410300000015838540272271046314_">
	<path style="fill:#050030;" d="M882.063,127.623c-4.228-0.398-4.423-6.007-8.07-7.118c-2.497-0.831-4.317,0.574-6.216,2.139
		c-2.107,1.894-5.674,2.379-8.115,0.536c-2.21-1.523-2.701-4.466-4.603-5.865c-1.771-1.185-3.766-0.929-5.492,0.489
		c-3.713,3.389-8.671,3.892-11.684-0.735c-1.301-2.033-1.798-4.073-4.17-4.578c-2.37-0.523-3.67,1.121-5.713,2.417
		c-2.472,1.807-6.539,1.573-8.69-0.792c-1.867-1.871-2.11-4.544-4.189-5.746c-3.644-2.058-5.924,2.242-9.454,2.918
		c-1.532,0.275-3.027-0.018-4.34-0.736c-3.525-1.906-3.146-7.293-7.537-7.722c-3.772-0.52-6.322,4.482-10.315,3.062
		c2.735,0.536,4.572-1.458,6.575-2.97c2.178-1.724,5.597-1.618,7.669,0.377c1.046,0.992,1.628,2.224,2.27,3.254
		c1.849,3.406,5.367,3.57,8.085,1.023c2.17-1.976,5.39-3.004,8.25-1.457c2.897,1.333,3.304,4.889,5.492,6.498
		c1.447,0.944,3.146,0.928,4.652-0.109c0.93-0.589,1.888-1.486,3.221-2.205c2.789-1.604,6.729-0.746,8.593,1.88
		c1.546,1.961,1.859,4.362,4.099,5.209c2.206,0.825,3.751-0.337,5.641-1.74c2.25-1.872,6.027-2.278,8.503-0.28
		c2.242,1.672,2.517,4.566,4.401,6.137c1.75,1.343,4.054,1.177,5.88-0.219c1.014-0.664,2.06-1.538,3.423-2.001
		c1.37-0.471,2.873-0.351,4.143,0.158C878.37,120.859,877.828,126.622,882.063,127.623L882.063,127.623z"/>
</g>
<g id="XMLID_00000176732792546695142420000002681687430092081335_">
	<path style="fill:#050030;" d="M1003.221,349.007c-4.238,0.281-5.325-5.225-9.102-5.74c-2.597-0.422-4.17,1.255-5.795,3.103
		c-1.778,2.206-5.222,3.254-7.926,1.823c-2.425-1.151-3.379-3.978-5.479-5.056c-1.938-0.887-3.866-0.316-5.343,1.359
		c-0.841,0.839-1.705,1.939-3.08,2.748c-2.716,1.692-6.686,0.798-8.572-1.611c-1.609-1.799-2.425-3.734-4.847-3.854
		c-2.423-0.139-3.444,1.692-5.255,3.297c-2.152,2.178-6.204,2.596-8.705,0.604c-2.141-1.549-2.808-4.15-5.052-5.004
		c-3.926-1.451-5.49,3.158-8.868,4.389c-1.469,0.516-2.991,0.465-4.402-0.034c-3.784-1.319-4.269-6.698-8.672-6.421
		c-3.807,0.088-5.526,5.433-9.695,4.668c2.786,0.093,4.28-2.168,6.017-3.98c1.875-2.049,5.268-2.49,7.631-0.851
		c1.19,0.813,1.962,1.936,2.76,2.85c2.369,3.067,5.868,2.668,8.145-0.28c1.827-2.297,4.841-3.825,7.912-2.755
		c3.073,0.854,4.041,4.3,6.458,5.539c1.579,0.701,3.254,0.414,4.575-0.849c0.824-0.73,1.627-1.768,2.828-2.69
		c2.498-2.028,6.524-1.809,8.783,0.486c1.839,1.689,2.531,4.01,4.878,4.488c2.31,0.463,3.649-0.931,5.292-2.617
		c1.923-2.207,5.586-3.21,8.349-1.633c2.48,1.293,3.213,4.106,5.323,5.356c1.942,1.047,4.19,0.515,5.77-1.154
		c0.895-0.818,1.788-1.847,3.061-2.521c1.277-0.683,2.781-0.805,4.115-0.505C998.497,342.919,998.881,348.695,1003.221,349.007
		L1003.221,349.007z"/>
</g>
<g id="XMLID_00000176016278696963774390000005281078865548560568_">
	
		<linearGradient id="SVGID_00000081635573707899346370000002452662557091144101_" gradientUnits="userSpaceOnUse" x1="928.1277" y1="486.7892" x2="1003.6218" y2="520.0164">
		<stop  offset="0" style="stop-color:#4AB8EE"/>
		<stop  offset="1" style="stop-color:#2442C6"/>
	</linearGradient>
	<path style="fill:url(#SVGID_00000081635573707899346370000002452662557091144101_);" d="M1011.795,498.117
		c-1.144,0.232-2.388-0.001-3.428-0.608c-1.039-0.605-1.882-1.453-2.8-2.096c-0.917-0.633-1.911-1.072-2.964-0.99
		c-1.058,0.048-2.062,0.419-2.794,1.105c-0.754,0.68-1.289,1.661-1.941,2.664c-0.652,0.987-1.526,2.118-2.837,2.667
		c-1.266,0.543-2.661,0.683-4.04,0.294c-1.385-0.396-2.4-1.317-3.281-2.058c-0.874-0.747-1.673-1.407-2.517-1.616
		c-0.813-0.231-1.82-0.141-2.614,0.196c-0.796,0.318-1.385,1.025-2.001,1.919c-0.623,0.899-1.224,2.038-2.336,2.999
		c-0.547,0.473-1.214,0.87-1.917,1.095c-0.697,0.237-1.405,0.332-2.128,0.345c-1.486,0.054-2.974-0.68-3.985-1.485
		c-1.024-0.806-1.803-1.643-2.594-2.136c-0.783-0.486-1.526-0.674-2.433-0.553c-0.906,0.114-1.579,0.475-2.219,1.143
		c-0.645,0.678-1.194,1.679-1.996,2.713c-0.785,1.029-2.057,2.101-3.511,2.403c-0.704,0.163-1.414,0.242-2.149,0.179
		c-0.737-0.045-1.479-0.273-2.125-0.597c-1.307-0.664-2.171-1.62-2.993-2.336c-0.816-0.714-1.559-1.253-2.41-1.361
		c-0.853-0.13-1.85,0.029-2.579,0.457c-0.763,0.414-1.377,1.248-2.042,2.188c-0.675,0.934-1.434,2.077-2.685,2.796
		c-1.245,0.71-2.632,0.916-3.993,0.696c-1.405-0.217-2.528-1.098-3.402-1.896c-0.878-0.811-1.636-1.633-2.535-2.103
		c-0.877-0.484-1.942-0.597-2.979-0.383c-1.04,0.18-1.896,0.848-2.63,1.687c-0.733,0.848-1.344,1.876-2.203,2.717
		c-0.86,0.842-2.011,1.372-3.176,1.427c1.158-0.195,2.173-0.831,2.879-1.703c0.727-0.866,1.221-1.912,1.913-2.897
		c0.677-0.977,1.696-1.911,2.957-2.237c1.208-0.359,2.596-0.342,3.814,0.205c1.213,0.539,2.097,1.429,2.971,2.126
		c0.868,0.695,1.724,1.249,2.661,1.322c0.931,0.085,1.962-0.119,2.708-0.608c0.774-0.476,1.34-1.348,1.962-2.313
		c0.63-0.961,1.341-2.138,2.593-2.934c1.258-0.779,2.678-1.037,4.117-0.87c1.494,0.165,2.735,1.061,3.661,1.838
		c0.93,0.791,1.71,1.544,2.507,1.902c0.768,0.356,1.638,0.411,2.516,0.191c0.849-0.194,1.459-0.718,2.085-1.505
		c0.626-0.797,1.181-1.87,2.117-2.904c0.924-1.05,2.412-1.861,3.829-2c1.406-0.217,3.049,0.197,4.206,0.986
		c1.167,0.771,1.967,1.675,2.771,2.3c0.8,0.612,1.521,0.973,2.389,0.96c0.903-0.001,1.74-0.26,2.397-0.792
		c0.687-0.536,1.259-1.459,1.964-2.452c0.706-0.98,1.684-2.152,3.089-2.686c1.354-0.518,2.792-0.621,4.203-0.175
		c1.412,0.458,2.389,1.427,3.237,2.204c0.84,0.784,1.603,1.491,2.47,1.768c0.844,0.292,1.893,0.242,2.777-0.068
		c0.893-0.296,1.587-1.045,2.258-1.93c0.675-0.889,1.314-1.969,2.355-2.789c1.044-0.83,2.385-1.189,3.644-1.137
		c1.302,0.004,2.518,0.661,3.414,1.442c0.912,0.785,1.648,1.678,2.564,2.341C1009.485,497.844,1010.625,498.213,1011.795,498.117z"
		/>
</g>
<g id="XMLID_00000066498882099617421140000010947615781492543110_">
	
		<linearGradient id="SVGID_00000027566089023486523200000005741594592069612983_" gradientUnits="userSpaceOnUse" x1="809.951" y1="724.8948" x2="884.6262" y2="757.7616">
		<stop  offset="0" style="stop-color:#4AB8EE"/>
		<stop  offset="1" style="stop-color:#2442C6"/>
	</linearGradient>
	<path style="fill:url(#SVGID_00000027566089023486523200000005741594592069612983_);" d="M893.127,735.119
		c-1.139,0.253-2.388,0.043-3.438-0.544c-1.05-0.586-1.908-1.418-2.838-2.044c-0.929-0.616-1.931-1.037-2.982-0.935
		c-1.057,0.067-2.054,0.457-2.773,1.156c-0.741,0.694-1.258,1.685-1.892,2.699c-0.634,0.999-1.487,2.146-2.787,2.719
		c-1.255,0.566-2.648,0.732-4.034,0.369c-1.392-0.371-2.424-1.273-3.319-1.997c-0.888-0.73-1.699-1.376-2.546-1.569
		c-0.818-0.216-1.823-0.107-2.61,0.245c-0.79,0.333-1.366,1.051-1.965,1.956c-0.606,0.91-1.186,2.06-2.28,3.041
		c-0.539,0.483-1.198,0.892-1.896,1.13c-0.692,0.25-1.399,0.358-2.121,0.385c-1.484,0.082-2.986-0.625-4.012-1.411
		c-1.039-0.787-1.833-1.609-2.633-2.088c-0.792-0.472-1.538-0.646-2.443-0.508c-0.904,0.131-1.57,0.504-2.197,1.183
		c-0.633,0.69-1.163,1.701-1.945,2.749c-0.766,1.043-2.018,2.139-3.466,2.467c-0.701,0.176-1.41,0.268-2.145,0.219
		c-0.738-0.031-1.483-0.246-2.136-0.558c-1.319-0.64-2.2-1.579-3.035-2.28c-0.829-0.698-1.582-1.223-2.434-1.316
		c-0.855-0.114-1.849,0.064-2.57,0.505c-0.756,0.428-1.354,1.273-2.002,2.225c-0.658,0.946-1.395,2.103-2.633,2.845
		c-1.232,0.733-2.614,0.964-3.979,0.77c-1.409-0.191-2.548-1.052-3.436-1.833c-0.893-0.795-1.666-1.603-2.573-2.056
		c-0.886-0.468-1.952-0.561-2.985-0.328c-1.037,0.2-1.88,0.883-2.599,1.735c-0.717,0.861-1.309,1.901-2.153,2.757
		c-0.845,0.858-1.985,1.409-3.149,1.485c1.154-0.216,2.157-0.871,2.847-1.756c0.711-0.88,1.186-1.934,1.859-2.932
		c0.659-0.99,1.661-1.942,2.915-2.291c1.201-0.382,2.59-0.39,3.817,0.134c1.222,0.517,2.124,1.39,3.01,2.07
		c0.88,0.678,1.747,1.217,2.685,1.272c0.932,0.068,1.959-0.155,2.697-0.658c0.765-0.49,1.314-1.373,1.919-2.348
		c0.612-0.972,1.301-2.162,2.538-2.981c1.244-0.802,2.659-1.086,4.101-0.946c1.497,0.137,2.754,1.01,3.694,1.77
		c0.944,0.774,1.738,1.513,2.542,1.855c0.774,0.342,1.646,0.38,2.519,0.144c0.846-0.21,1.446-0.745,2.057-1.543
		c0.611-0.808,1.147-1.892,2.063-2.943c0.904-1.067,2.377-1.905,3.792-2.071c1.401-0.243,3.053,0.14,4.224,0.908
		c1.182,0.749,1.997,1.639,2.813,2.248c0.812,0.598,1.538,0.945,2.407,0.915c0.903-0.017,1.735-0.292,2.382-0.836
		c0.677-0.548,1.232-1.482,1.918-2.487c0.688-0.993,1.644-2.183,3.038-2.742c1.344-0.543,2.78-0.672,4.199-0.253
		c1.42,0.432,2.415,1.382,3.278,2.144c0.854,0.769,1.63,1.461,2.502,1.722c0.849,0.276,1.898,0.207,2.775-0.119
		c0.888-0.312,1.567-1.074,2.222-1.972c0.659-0.901,1.278-1.992,2.303-2.832c1.029-0.849,2.363-1.233,3.622-1.205
		c1.301-0.02,2.53,0.614,3.44,1.378c0.926,0.768,1.678,1.647,2.607,2.293C890.812,734.889,891.958,735.236,893.127,735.119z"/>
</g>
<g id="XMLID_00000145060059699172153030000004261973677109548220_">
	
		<circle id="XMLID_00000090981234273595736780000001750645147557923491_" style="fill:none;stroke:#050030;stroke-width:1.2206;stroke-miterlimit:10;" cx="670.948" cy="151.757" r="10.319"/>
	
		<circle id="XMLID_00000086650245450026905900000007594332808126477500_" style="fill:#050030;" cx="670.948" cy="151.757" r="4.708"/>
</g>
<g id="XMLID_00000106835591079945358160000011595379856353362580_">
	
		<circle id="XMLID_00000032617392627563368260000003178737086892247194_" style="fill:none;stroke:#050030;stroke-width:1.2206;stroke-miterlimit:10;" cx="1065.611" cy="251.418" r="10.319"/>
	
		<circle id="XMLID_00000047763838353632640800000015150972237160885946_" style="fill:#050030;" cx="1065.611" cy="251.418" r="4.708"/>
</g>
<g id="XMLID_00000134935788261668425310000002241324111205143950_">
	<text transform="matrix(0.9989 -0.0462 0.0462 0.9989 724.5001 225.0726)"><tspan x="0" y="0" style="fill:#FFFFFF; font-family:'Roboto-Black'; font-size:52.4642px;">join </tspan><tspan x="0" y="62.957" style="fill:#FFFFFF; font-family:'Roboto-Black'; font-size:52.4642px;">our team</tspan></text>
</g>
<linearGradient id="XMLID_00000034066259451267478130000009426096685622226102_" gradientUnits="userSpaceOnUse" x1="951.1652" y1="757.9988" x2="979.3723" y2="645.1704" gradientTransform="matrix(0.6829 0.057 0.2541 1.3069 128.5446 -234.4839)">
	<stop  offset="0.1781" style="stop-color:#FFC201"/>
	<stop  offset="0.9553" style="stop-color:#FF5E01"/>
</linearGradient>
<polygon id="XMLID_00000148645650372398130120000016103075034697065143_" style="fill:url(#XMLID_00000034066259451267478130000009426096685622226102_);" points="
	1018.012,700.187 912.564,754.658 918.358,670.94 "/>
<polygon id="XMLID_00000077310027251014543430000010588838430947499682_" style="opacity:0.6;fill:#5B0707;" points="
	1018.012,700.187 915.159,716.893 918.358,670.94 "/>
<linearGradient id="XMLID_00000041291109744785816960000004945408174710009530_" gradientUnits="userSpaceOnUse" x1="750.6179" y1="476.0298" x2="991.1961" y2="706.2233" gradientTransform="matrix(0.9951 -0.0985 0.0985 0.9951 -57.4849 85.7841)">
	<stop  offset="1.065558e-08" style="stop-color:#FF5767"/>
	<stop  offset="1" style="stop-color:#CE111F"/>
</linearGradient>
<polygon id="XMLID_00000079447328409155938860000011525092187846571420_" style="fill:url(#XMLID_00000041291109744785816960000004945408174710009530_);" points="
	1018.012,700.187 733.996,694.316 701.587,544.57 1057.224,526.257 "/>
<linearGradient id="XMLID_00000139980139445849963650000004368382477224454826_" gradientUnits="userSpaceOnUse" x1="388.3202" y1="444.955" x2="427.175" y2="367.2453" gradientTransform="matrix(0.3221 0.9467 -0.9467 0.3221 658.4249 -192.3775)">
	<stop  offset="0.1781" style="stop-color:#FFC201"/>
	<stop  offset="0.9553" style="stop-color:#FF5E01"/>
</linearGradient>
<polygon id="XMLID_00000119808418540668447390000003518881153874504607_" style="fill:url(#XMLID_00000139980139445849963650000004368382477224454826_);" points="
	393.909,295.215 436.45,356.37 446.645,332.108 "/>
<linearGradient id="XMLID_00000016033714791816585560000015828124821640276903_" gradientUnits="userSpaceOnUse" x1="560.9581" y1="512.3415" x2="591.9576" y2="450.3423" gradientTransform="matrix(-0.2153 -0.9765 0.9765 -0.2153 -139.4395 797.7475)">
	<stop  offset="0.1781" style="stop-color:#FFC201"/>
	<stop  offset="0.9553" style="stop-color:#FF5E01"/>
</linearGradient>
<polygon id="XMLID_00000108993872791735542120000008805295630657799075_" style="fill:url(#XMLID_00000016033714791816585560000015828124821640276903_);" points="
	212.928,155.344 184.596,103.096 174.37,121.433 "/>
<linearGradient id="XMLID_00000023985325564868888330000007503396049986269864_" gradientUnits="userSpaceOnUse" x1="508.8974" y1="569.8712" x2="544.4982" y2="498.6696" gradientTransform="matrix(-1.2773 -0.4428 0.8544 -0.9156 371.0083 926.8237)">
	<stop  offset="0" style="stop-color:#404040"/>
	<stop  offset="1" style="stop-color:#000000"/>
</linearGradient>
<polygon id="XMLID_00000060713899051653920420000002747476919803531651_" style="fill:url(#XMLID_00000023985325564868888330000007503396049986269864_);" points="
	192.531,215.948 92.63,204.16 101.994,226.801 "/>
<linearGradient id="XMLID_00000016787989196906606150000012068019917115138470_" gradientUnits="userSpaceOnUse" x1="131.573" y1="509.8474" x2="154.8969" y2="463.1996" gradientTransform="matrix(1.2174 0.5877 -0.9547 0.8106 799.8268 -252.937)">
	<stop  offset="0" style="stop-color:#404040"/>
	<stop  offset="1" style="stop-color:#000000"/>
</linearGradient>
<polygon id="XMLID_00000097485278610230346300000010945137726932194471_" style="fill:url(#XMLID_00000016787989196906606150000012068019917115138470_);" points="
	486.029,215.218 550.145,230.466 545.769,215.023 "/>
<linearGradient id="XMLID_00000114792883351686710840000013862422588417704613_" gradientUnits="userSpaceOnUse" x1="639.9025" y1="409.3918" x2="690.3275" y2="308.5419" gradientTransform="matrix(-0.7759 0.6308 0.6308 0.7759 1000.7077 -77.5445)">
	<stop  offset="0.1781" style="stop-color:#FFC201"/>
	<stop  offset="0.9553" style="stop-color:#FF5E01"/>
</linearGradient>
<polygon id="XMLID_00000014614908264500319250000015155962310870349467_" style="fill:url(#XMLID_00000114792883351686710840000013862422588417704613_);" points="
	739.529,605.59 660.544,625.548 656.109,609.78 "/>
<linearGradient id="XMLID_00000160183449036389706160000009315006311064907448_" gradientUnits="userSpaceOnUse" x1="320.7301" y1="701.9685" x2="341.0139" y2="661.4009" gradientTransform="matrix(-1.3353 0.2107 0.6796 1.052 671.2794 -244.7175)">
	<stop  offset="0" style="stop-color:#404040"/>
	<stop  offset="1" style="stop-color:#000000"/>
</linearGradient>
<polygon id="XMLID_00000013163301720192417790000009749136908238700673_" style="fill:url(#XMLID_00000160183449036389706160000009315006311064907448_);" points="
	715.062,539.402 657.85,535.976 665.376,524.219 "/>
<linearGradient id="XMLID_00000083090111317308564190000013491674689786327694_" gradientUnits="userSpaceOnUse" x1="753.0715" y1="640.5997" x2="799.5695" y2="547.6038" gradientTransform="matrix(0.8068 0.5908 -0.5908 0.8068 767.7599 -270.822)">
	<stop  offset="0.1781" style="stop-color:#FFC201"/>
	<stop  offset="0.9553" style="stop-color:#FF5E01"/>
</linearGradient>
<polygon id="XMLID_00000056413075683050514590000014444803122318299796_" style="fill:url(#XMLID_00000083090111317308564190000013491674689786327694_);" points="
	1016.901,656.201 1074.996,675.179 1093.922,656.178 "/>
<linearGradient id="XMLID_00000174578307132240966860000013370223113877793686_" gradientUnits="userSpaceOnUse" x1="243.7491" y1="826.2253" x2="271.661" y2="770.4014" gradientTransform="matrix(1.3507 -0.0553 -0.4601 1.1648 1071.0454 -284.3051)">
	<stop  offset="0" style="stop-color:#404040"/>
	<stop  offset="1" style="stop-color:#000000"/>
</linearGradient>
<polygon id="XMLID_00000096021554121940722500000001284361274192772262_" style="fill:url(#XMLID_00000174578307132240966860000013370223113877793686_);" points="
	1020.982,633.725 1097.255,613.662 1083.927,599.829 "/>
<g id="XMLID_00000086672462181620172180000007615522131093724820_">
	<g id="XMLID_00000137813552923483129490000009417488957584953265_">
		
			<linearGradient id="XMLID_00000111161105121781337240000007925383936283753374_" gradientUnits="userSpaceOnUse" x1="295.3065" y1="643.3318" x2="376.844" y2="545.0072" gradientTransform="matrix(0.9919 -0.1272 0.1272 0.9919 -69.0067 54.3015)">
			<stop  offset="0" style="stop-color:#404040"/>
			<stop  offset="1" style="stop-color:#000000"/>
		</linearGradient>
		
			<polygon id="XMLID_00000168815036750466338350000002151642073234699406_" style="fill:url(#XMLID_00000111161105121781337240000007925383936283753374_);" points="
			116.34,615.229 313.649,683.146 372.957,703.566 384.466,707.533 384.513,707.543 420.223,719.838 412.499,778.869 
			412.174,781.297 487.559,706.452 480.057,683.422 465.593,639.038 418.859,495.581 		"/>
		<path id="XMLID_00000123423179449823211510000002662667629621274020_" d="M313.649,683.146l59.308,20.42
			c11.867-4.167,25.762-11.24,25.762-11.24l84.423,0.568l-17.549-53.856c-38.174,0.308-110.8,1.713-117.316,1.33
			C340.881,639.928,320.686,671.291,313.649,683.146z"/>
		<g id="XMLID_00000170991396071653727780000003350844775562599102_">
			<g id="XMLID_00000060020425697909988810000011450466098122505908_">
				
					<linearGradient id="SVGID_00000179617404806825920580000015880396729581472143_" gradientUnits="userSpaceOnUse" x1="434.4178" y1="477.0227" x2="364.3386" y2="583.4272">
					<stop  offset="0.1781" style="stop-color:#474747"/>
					<stop  offset="0.9553" style="stop-color:#262626"/>
				</linearGradient>
				<path style="fill:url(#SVGID_00000179617404806825920580000015880396729581472143_);" d="M516.031,568.354
					c-1.225-6.517-2.403-13.042-3.557-19.571c-1.154-6.529-2.356-13.05-3.471-19.585l0.772,0.693
					c-20.312-0.762-40.629-1.434-60.933-2.352c-20.306-0.888-40.609-1.836-60.907-2.89l-30.445-1.622
					c-10.149-0.533-20.292-1.175-30.436-1.791c-20.291-1.203-40.575-2.522-60.85-4.054c20.327,0.45,40.644,1.111,60.956,1.89
					c10.156,0.375,20.314,0.723,30.466,1.181l30.458,1.35c20.304,0.927,40.603,1.961,60.899,3.054
					c20.297,1.063,40.583,2.372,60.872,3.592l0.677,0.041l0.095,0.653c0.957,6.56,1.827,13.133,2.745,19.7
					C514.29,555.207,515.184,561.776,516.031,568.354z"/>
			</g>
			<g id="XMLID_00000170990046373257169170000017975931553446563479_">
				
					<linearGradient id="SVGID_00000173154625414319388690000001444558471628998804_" gradientUnits="userSpaceOnUse" x1="190.1633" y1="500.1374" x2="162.5934" y2="541.9981">
					<stop  offset="0.1781" style="stop-color:#474747"/>
					<stop  offset="0.9553" style="stop-color:#262626"/>
				</linearGradient>
				<path style="fill:url(#SVGID_00000173154625414319388690000001444558471628998804_);" d="M209.381,514.408
					c-4.464,0.229-8.921,0.315-13.374,0.309c-4.453,0.006-8.903-0.055-13.35-0.186c-2.224-0.046-4.447-0.125-6.668-0.226
					c-2.222-0.1-4.445-0.164-6.665-0.294c-4.441-0.24-8.882-0.495-13.318-0.84l1.43-1.27c-0.171,1.988-0.403,3.971-0.614,5.956
					c-0.204,1.985-0.444,3.968-0.693,5.95c-0.49,3.965-1.034,7.926-1.725,11.877c-0.135-4.008-0.123-8.007-0.056-12.001
					c0.029-1.997,0.067-3.994,0.141-5.989c0.067-1.995,0.114-3.991,0.221-5.983l0.07-1.297l1.36,0.027
					c4.449,0.089,8.893,0.268,13.336,0.461c2.222,0.087,4.441,0.24,6.662,0.357c2.221,0.116,4.441,0.253,6.659,0.424
					c4.438,0.303,8.873,0.675,13.304,1.115C200.533,513.226,204.96,513.746,209.381,514.408z"/>
			</g>
			<g id="XMLID_00000034773255099720052100000011378422363936072382_">
				
					<linearGradient id="SVGID_00000178199772249834530720000008774136505805617048_" gradientUnits="userSpaceOnUse" x1="289.8031" y1="641.7326" x2="203.5349" y2="772.7177">
					<stop  offset="0.1781" style="stop-color:#474747"/>
					<stop  offset="0.9553" style="stop-color:#262626"/>
				</linearGradient>
				<path style="fill:url(#SVGID_00000178199772249834530720000008774136505805617048_);" d="M144.797,673.128l-0.641,13.886
					l-0.703,13.881c-0.242,4.627-0.449,9.256-0.734,13.879l-0.807,13.874l-1.112-1.056l29.327-3.927l29.347-3.762l29.36-3.651
					l29.374-3.542c19.586-2.334,39.181-4.588,58.792-6.718c19.602-2.198,39.222-4.256,58.861-6.152
					c-19.517,2.894-39.055,5.626-58.609,8.217c-19.546,2.66-39.107,5.195-58.678,7.651l-29.361,3.642l-29.375,3.534l-29.388,3.423
					l-29.409,3.258l-1.209,0.134l0.097-1.19l1.131-13.851c0.361-4.618,0.8-9.231,1.204-13.846l1.235-13.844L144.797,673.128z"/>
			</g>
			<g id="XMLID_00000072972415860706944720000017419653161988267709_">
				
					<linearGradient id="SVGID_00000146469988906012278890000002353317016657394068_" gradientUnits="userSpaceOnUse" x1="527.5378" y1="629.0356" x2="472.8034" y2="712.1415">
					<stop  offset="0.1781" style="stop-color:#474747"/>
					<stop  offset="0.9553" style="stop-color:#262626"/>
				</linearGradient>
				<path style="fill:url(#SVGID_00000146469988906012278890000002353317016657394068_);" d="M443.696,691.543
					c7.456-1.335,14.929-2.525,22.411-3.653c3.739-0.574,7.481-1.127,11.227-1.653c3.744-0.538,7.487-1.077,11.237-1.57
					c7.493-1.034,14.995-1.988,22.499-2.927c7.505-0.936,15.016-1.814,22.531-2.669l-1.268,1.682
					c-1.269-8.594-2.486-17.196-3.619-25.811c-1.13-8.616-2.194-17.242-3.08-25.897c1.83,8.505,3.48,17.039,5.065,25.582
					c1.582,8.544,3.08,17.102,4.526,25.668l0.25,1.484l-1.519,0.199c-7.499,0.981-15.001,1.94-22.51,2.841
					c-7.509,0.897-15.021,1.78-22.542,2.582c-3.758,0.425-7.521,0.804-11.284,1.184c-3.762,0.393-7.526,0.758-11.294,1.102
					C458.794,690.394,451.254,691.041,443.696,691.543z"/>
			</g>
		</g>
		
			<linearGradient id="XMLID_00000021829051067307044780000002957408497733269674_" gradientUnits="userSpaceOnUse" x1="281.0122" y1="497.8379" x2="360.9509" y2="752.043" gradientTransform="matrix(0.9919 -0.1272 0.1272 0.9919 -69.0067 54.3015)">
			<stop  offset="0.1781" style="stop-color:#FFC201"/>
			<stop  offset="0.9553" style="stop-color:#FF5E01"/>
		</linearGradient>
		
			<polygon id="XMLID_00000145769169650486595650000012037446019933557642_" style="fill:url(#XMLID_00000021829051067307044780000002957408497733269674_);" points="
			164.955,521.731 501.574,538.158 522.802,672.321 151.253,717.771 		"/>
		<polygon id="XMLID_00000171720882111664585880000000638578509344738186_" style="opacity:0.2;fill:#1E1E1E;" points="
			499.112,667.501 402.06,688.5 392.033,684.947 169.458,715.544 156.117,646.566 484.174,537.407 487.799,537.486 		"/>
		
			<linearGradient id="XMLID_00000000919232698794242880000008894484497830382482_" gradientUnits="userSpaceOnUse" x1="233.4228" y1="569.5547" x2="240.2176" y2="539.9774" gradientTransform="matrix(0.9955 -0.0944 0.0944 0.9955 -63.2652 29.523)">
			<stop  offset="1.065558e-08" style="stop-color:#FF5597"/>
			<stop  offset="1" style="stop-color:#CE111F"/>
		</linearGradient>
		
			<polygon id="XMLID_00000155840437560958238260000011697664795435127734_" style="fill:url(#XMLID_00000000919232698794242880000008894484497830382482_);" points="
			302.142,520.677 147.82,531.522 139.293,571.27 308.778,560.529 307.587,535.158 		"/>
		
			<linearGradient id="XMLID_00000151539592715709067340000006516878905773213862_" gradientUnits="userSpaceOnUse" x1="1158.7203" y1="540.5446" x2="1415.3903" y2="824.5198" gradientTransform="matrix(-0.9976 0.0696 0.0696 0.9976 1511.5713 -121.8272)">
			<stop  offset="0" style="stop-color:#4AB8EE"/>
			<stop  offset="1" style="stop-color:#2442C6"/>
		</linearGradient>
		
			<polygon id="XMLID_00000024715405550422832910000003156555581608983189_" style="fill:url(#XMLID_00000151539592715709067340000006516878905773213862_);" points="
			183.199,746.362 494.758,661.97 485.602,516.561 127.958,542.805 		"/>
		<g id="XMLID_00000139257012955484213760000009130554471783638928_">
			<g id="XMLID_00000035507284356531859630000000436152662541003670_">
				<path style="fill:#FFFFFF;" d="M480.962,592.323c-1.546-7.494-2.04-15.197-1.437-22.826
					C481.079,576.99,481.556,584.695,480.962,592.323L480.962,592.323z"/>
			</g>
			<g id="XMLID_00000098212039095897819410000009499707679870967983_">
				<path style="fill:#FFFFFF;" d="M478.386,551.41c-0.717-7.051-1.607-17.284-2.153-24.457c0,0,0.655,0.571,0.655,0.571
					c-5.886,0.527-11.775,1.007-17.667,1.451c-17.508,1.334-35.541,2.498-53.09,3.128c17.453-1.938,35.464-3.42,52.978-4.655
					c6.102-0.436,12.208-0.833,18.317-1.179C477.732,533.732,478.268,544.03,478.386,551.41L478.386,551.41z"/>
			</g>
			<g id="XMLID_00000057846377606333277820000017670320676840463276_">
				<path style="fill:#FFFFFF;" d="M371.464,534.647c-35.914,3.7-72.33,6.381-108.4,7.954
					C298.978,538.892,335.395,536.229,371.464,534.647L371.464,534.647z"/>
			</g>
			<g id="XMLID_00000113352288581540784300000013801347223259466417_">
				<path style="fill:#FFFFFF;" d="M231.194,544.94c-20.797,2.045-47.357,4.208-68.284,5.785c0,0-22.782,1.641-22.782,1.641
					l0.662-0.935l3.533,13.34c3.245,12.436,7.152,27.642,10.207,40.126c-3.675-12.326-7.987-27.405-11.477-39.782
					c0,0-3.696-13.296-3.696-13.296l-0.241-0.868l0.904-0.068l22.778-1.702C183.753,547.698,210.292,545.945,231.194,544.94
					L231.194,544.94z"/>
			</g>
			<g id="XMLID_00000150812815641048392110000002600083577347477665_">
				<path style="fill:#FFFFFF;" d="M163.683,638.626c5.313,15.485,9.602,31.258,12.838,47.307
					C171.199,670.45,166.927,654.672,163.683,638.626L163.683,638.626z"/>
			</g>
			<g id="XMLID_00000005949835616585539050000007039454502136818847_">
				<path style="fill:#FFFFFF;" d="M182.963,709.672c2.253,7.097,5.301,17.444,7.393,24.708c0,0-0.814-0.467-0.814-0.467
					c5.074-1.436,10.152-2.858,15.241-4.241c15.266-4.156,30.582-8.143,46.009-11.662c-20.13,6.314-40.484,11.886-60.902,17.184
					c0,0-0.655,0.169-0.655,0.169l-0.16-0.636C187.259,727.354,184.56,716.991,182.963,709.672L182.963,709.672z"/>
			</g>
			<g id="XMLID_00000090260672436076861020000017551600916058747014_">
				<path style="fill:#FFFFFF;" d="M300.46,704.557c18.903-6.231,38.089-11.437,57.555-15.59
					C339.114,695.206,319.923,700.395,300.46,704.557L300.46,704.557z"/>
			</g>
			<g id="XMLID_00000165194142960684548610000012903570153466371983_">
				<path style="fill:#FFFFFF;" d="M391.65,679.856c12.787-4.574,25.864-8.125,39.214-10.622
					C418.08,673.817,404.998,677.351,391.65,679.856L391.65,679.856z"/>
			</g>
			<g id="XMLID_00000121252533043110477640000004210721565034763141_">
				<path style="fill:#FFFFFF;" d="M445.448,665.284c13.005-4.054,26.106-7.794,39.236-11.416c0,0-0.56,0.782-0.56,0.782
					c-0.626-9.149-1.148-18.304-1.631-27.461c-0.384-8.05-0.898-19.539-1.067-27.497c0.856,7.866,1.734,19.4,2.391,27.413
					c0.669,9.146,1.3,18.294,1.826,27.449l0.036,0.623l-0.596,0.159C471.919,658.837,458.722,662.219,445.448,665.284
					L445.448,665.284z"/>
			</g>
		</g>
	</g>
	
		<text id="XMLID_00000059995628799561504090000010624393378842976165_" transform="matrix(0.9841 -0.1778 0.1778 0.9841 199.8999 666.0618)" style="fill:#FFFFFF; font-family:'Montserrat-ExtraBold'; font-size:73.0648px;">Hiring</text>
	
		<text id="XMLID_00000024715751040906791420000005302951526288676525_" transform="matrix(0.9788 -0.2047 0.2047 0.9788 213.3544 708.1583)" style="fill:#FFFFFF; font-family:'Montserrat-Regular'; font-size:21.3559px;">apply now</text>
	<polygon id="XMLID_00000065065378083731352060000015442592081181739400_" style="opacity:0.2;fill:#1E1E1E;" points="
		157.391,574.152 297.344,564.026 303.561,529.919 148.558,540.92 	"/>
	
		<linearGradient id="XMLID_00000003817460179366607940000011867588453922082747_" gradientUnits="userSpaceOnUse" x1="1308.0844" y1="493.6363" x2="1353.0499" y2="581.7687" gradientTransform="matrix(-0.9955 0.0944 0.0944 0.9955 1496.4445 -118.4333)">
		<stop  offset="1.065558e-08" style="stop-color:#FF5597"/>
		<stop  offset="1" style="stop-color:#CE111F"/>
	</linearGradient>
	
		<polygon id="XMLID_00000021102547643641314570000011699203315252388261_" style="fill:url(#XMLID_00000003817460179366607940000011867588453922082747_);" points="
		160.517,569.741 294.894,560.019 302.032,520.346 147.743,531.508 	"/>
	<g id="XMLID_00000133507968444247548440000002322888843053505190_">
		
			<text transform="matrix(0.9973 -0.0731 0.0731 0.9973 163.4904 560.4844)" style="fill:#FFFFFF; font-family:'Montserrat-ExtraBold'; font-size:28.3201px;">we are</text>
	</g>
	<g id="XMLID_00000017511309812852684590000014227207060650569624_">
		
			<linearGradient id="SVGID_00000077287824730120650530000002287588665536697489_" gradientUnits="userSpaceOnUse" x1="232.8739" y1="478.4306" x2="316.181" y2="525.3931">
			<stop  offset="0" style="stop-color:#4AB8EE"/>
			<stop  offset="1" style="stop-color:#2442C6"/>
		</linearGradient>
		<path style="fill:url(#SVGID_00000077287824730120650530000002287588665536697489_);" d="M326.123,504.57
			c-1.324,0.057-2.675-0.457-3.712-1.346c-1.034-0.889-1.81-2.001-2.704-2.905c-0.896-0.892-1.913-1.583-3.094-1.689
			c-1.185-0.141-2.361,0.111-3.281,0.765c-0.944,0.65-1.701,1.667-2.59,2.693c-0.887,1.007-2.04,2.151-3.62,2.568
			c-1.528,0.407-3.145,0.306-4.625-0.414c-1.477-0.736-2.42-1.967-3.256-2.972c-0.824-1.01-1.589-1.907-2.469-2.307
			c-0.842-0.411-1.965-0.493-2.887-0.25c-0.917,0.225-1.687,0.923-2.518,1.832c-0.841,0.914-1.693,2.095-3.095,3.014
			c-0.696,0.445-1.516,0.805-2.358,0.937c-0.836,0.154-1.66,0.132-2.485,0.011c-0.411-0.066-0.83-0.203-1.236-0.327
			c-0.383-0.188-0.808-0.334-1.146-0.582c-0.74-0.444-1.297-1.018-1.813-1.566c-0.978-1.108-1.684-2.197-2.461-2.91
			c-0.773-0.699-1.533-1.043-2.544-1.072c-1.009-0.031-1.79,0.256-2.61,0.903c-0.826,0.663-1.604,1.698-2.664,2.737
			c-0.552,0.512-1.157,1.041-1.924,1.432c-0.358,0.219-0.79,0.338-1.186,0.497c-0.416,0.087-0.842,0.204-1.257,0.232
			c-0.831,0.061-1.654,0.023-2.478-0.193c-0.832-0.189-1.621-0.611-2.285-1.104c-1.327-1.019-2.096-2.255-2.869-3.223
			c-0.765-0.963-1.484-1.713-2.384-1.995c-0.904-0.304-2.029-0.302-2.894,0.055c-0.904,0.342-1.729,1.181-2.623,2.133
			c-0.906,0.943-1.934,2.108-3.464,2.733c-1.529,0.61-3.149,0.597-4.646,0.08c-1.545-0.533-2.615-1.754-3.428-2.821
			c-0.814-1.084-1.498-2.154-2.396-2.863c-0.872-0.716-2.028-1.048-3.219-0.99c-1.185,0.024-2.248,0.641-3.204,1.468
			c-0.956,0.839-1.808,1.893-2.903,2.707c-1.098,0.814-2.482,1.231-3.798,1.08c1.334-0.013,2.573-0.574,3.499-1.446
			c0.946-0.866,1.669-1.96,2.596-2.962c0.91-0.994,2.203-1.898,3.687-2.055c1.426-0.2,2.999,0.093,4.252,0.958
			c1.244,0.857,2.054,2.023,2.889,2.978c0.828,0.951,1.673,1.741,2.684,2.002c1.006,0.269,2.182,0.219,3.079-0.206
			c0.927-0.413,1.701-1.303,2.55-2.291c0.859-0.981,1.836-2.193,3.38-2.906c1.558-0.687,3.229-0.73,4.829-0.256
			c1.664,0.492,2.861,1.758,3.739,2.809c0.877,1.071,1.601,2.068,2.407,2.627c0.204,0.124,0.396,0.275,0.612,0.347
			c0.201,0.112,0.423,0.172,0.648,0.228c0.451,0.118,0.961,0.133,1.441,0.098c0.954-0.07,1.704-0.558,2.53-1.344
			c0.826-0.801,1.622-1.914,2.832-2.937c0.621-0.496,1.338-0.978,2.172-1.254c0.4-0.176,0.836-0.216,1.255-0.315
			c0.419-0.052,0.836-0.056,1.254-0.07c0.416,0.042,0.831,0.079,1.245,0.154c0.412,0.127,0.842,0.201,1.231,0.398
			c0.81,0.335,1.501,0.857,2.084,1.397c1.143,1.104,1.857,2.27,2.626,3.132c0.769,0.847,1.485,1.384,2.427,1.529
			c0.477,0.069,0.985,0.092,1.446,0.008c0.462-0.069,0.88-0.232,1.3-0.48c0.844-0.495,1.637-1.441,2.583-2.446
			c0.948-0.989,2.227-2.165,3.917-2.549c1.63-0.365,3.293-0.21,4.798,0.583c1.494,0.813,2.384,2.092,3.174,3.131
			c0.778,1.046,1.489,1.988,2.384,2.471c0.866,0.488,2.035,0.625,3.059,0.428c1.03-0.185,1.927-0.916,2.82-1.806
			c0.899-0.893,1.788-2.001,3.086-2.77c1.308-0.777,2.897-0.961,4.305-0.664c1.469,0.257,2.696,1.25,3.534,2.305
			c0.855,1.064,1.499,2.207,2.382,3.137C323.596,503.817,324.793,504.464,326.123,504.57z"/>
	</g>
	<g id="XMLID_00000095312140968002349940000014065753000213356989_">
		
			<linearGradient id="SVGID_00000152222241418286691620000017752942649447106473_" gradientUnits="userSpaceOnUse" x1="284.7109" y1="715.1801" x2="356.4117" y2="755.5998">
			<stop  offset="0" style="stop-color:#4AB8EE"/>
			<stop  offset="1" style="stop-color:#2442C6"/>
		</linearGradient>
		<path style="fill:url(#SVGID_00000152222241418286691620000017752942649447106473_);" d="M371.677,725.332
			c-1.276,0.357-2.709,0.163-3.92-0.467c-1.209-0.631-2.217-1.537-3.294-2.215c-1.075-0.666-2.223-1.107-3.397-0.941
			c-1.186,0.133-2.274,0.644-3.022,1.491c-0.772,0.848-1.278,2.011-1.91,3.211c-0.635,1.182-1.498,2.559-2.941,3.323
			c-1.395,0.744-2.993,1.013-4.598,0.648c-1.605-0.381-2.803-1.366-3.846-2.154c-1.033-0.796-1.981-1.496-2.929-1.685
			c-0.913-0.209-2.026-0.033-2.868,0.412c-0.841,0.427-1.433,1.282-2.036,2.357c-0.611,1.082-1.173,2.425-2.328,3.639
			c-0.577,0.592-1.293,1.128-2.084,1.448c-0.779,0.34-1.586,0.506-2.417,0.576c-0.416,0.03-0.854-0.009-1.278-0.037
			c-0.416-0.096-0.863-0.141-1.248-0.307c-0.822-0.264-1.494-0.696-2.122-1.113c-1.204-0.857-2.14-1.757-3.058-2.274
			c-0.912-0.505-1.73-0.667-2.721-0.466c-0.989,0.199-1.685,0.656-2.337,1.472c-0.653,0.834-1.176,2.019-1.972,3.271
			c-0.421,0.624-0.89,1.277-1.548,1.832c-0.299,0.295-0.692,0.509-1.042,0.754c-0.385,0.179-0.774,0.39-1.171,0.512
			c-0.796,0.248-1.606,0.398-2.457,0.375c-0.854,0.005-1.718-0.226-2.476-0.555c-1.523-0.691-2.554-1.719-3.527-2.487
			c-0.964-0.763-1.834-1.331-2.776-1.401c-0.949-0.09-2.044,0.167-2.806,0.711c-0.803,0.538-1.415,1.543-2.07,2.673
			c-0.668,1.124-1.404,2.493-2.752,3.449c-1.351,0.941-2.931,1.297-4.506,1.134c-1.626-0.168-2.945-1.113-3.98-1.968
			c-1.039-0.871-1.948-1.757-2.984-2.244c-1.012-0.499-2.213-0.559-3.36-0.232c-1.149,0.293-2.043,1.135-2.786,2.158
			c-0.74,1.035-1.331,2.255-2.212,3.296c-0.884,1.042-2.137,1.763-3.453,1.916c1.296-0.316,2.375-1.144,3.078-2.204
			c0.725-1.058,1.18-2.288,1.855-3.475c0.66-1.175,1.714-2.349,3.124-2.839c1.343-0.519,2.941-0.591,4.358-0.034
			c1.406,0.551,2.46,1.504,3.49,2.244c1.023,0.738,2.025,1.315,3.069,1.339c1.041,0.033,2.175-0.282,2.952-0.9
			c0.809-0.613,1.36-1.656,1.962-2.811c0.614-1.151,1.29-2.553,2.631-3.598c1.361-1.023,2.978-1.445,4.645-1.347
			c1.732,0.101,3.186,1.061,4.28,1.886c1.097,0.844,2.029,1.65,2.941,2.011c0.227,0.075,0.449,0.178,0.675,0.199
			c0.221,0.063,0.451,0.072,0.683,0.074c0.466,0.013,0.966-0.089,1.426-0.233c0.913-0.285,1.532-0.93,2.159-1.884
			c0.622-0.968,1.144-2.233,2.09-3.504c0.492-0.625,1.081-1.256,1.83-1.715c0.35-0.263,0.765-0.4,1.151-0.592
			c0.396-0.146,0.801-0.245,1.205-0.354c0.415-0.054,0.827-0.112,1.248-0.133c0.43,0.03,0.866,0.004,1.29,0.107
			c0.865,0.142,1.657,0.493,2.347,0.887c1.364,0.815,2.324,1.788,3.269,2.453c0.941,0.65,1.761,1.01,2.712,0.937
			c0.48-0.041,0.98-0.135,1.41-0.321c0.434-0.172,0.804-0.426,1.157-0.763c0.709-0.674,1.266-1.776,1.959-2.969
			c0.698-1.178,1.676-2.615,3.235-3.372c1.504-0.726,3.159-0.953,4.805-0.523c1.64,0.452,2.797,1.495,3.803,2.327
			c0.996,0.842,1.902,1.598,2.883,1.864c0.954,0.278,2.123,0.146,3.076-0.279c0.961-0.414,1.668-1.33,2.335-2.4
			c0.672-1.074,1.286-2.355,2.375-3.399c1.097-1.054,2.603-1.595,4.042-1.625c1.489-0.084,2.91,0.605,3.965,1.441
			c1.075,0.842,1.962,1.808,3.033,2.514C369.045,725.173,370.358,725.532,371.677,725.332z"/>
	</g>
	<g id="XMLID_00000101064192531059448110000003734162421620257923_">
		
			<circle id="XMLID_00000092445461950843241050000017765039515482875030_" style="fill:none;stroke:#050030;stroke-width:1.3119;stroke-miterlimit:10;" cx="116.34" cy="568.354" r="10.649"/>
		
			<circle id="XMLID_00000038404664912965281500000014900161346482891173_" style="fill:#050030;" cx="116.34" cy="568.354" r="4.859"/>
	</g>
	<g id="XMLID_00000036953947695636699600000016439684034736573341_">
		
			<circle id="XMLID_00000139255410272176442730000011216076840635460525_" style="fill:none;stroke:#050030;stroke-width:1.3119;stroke-miterlimit:10;" cx="535.549" cy="595.839" r="10.649"/>
		
			<circle id="XMLID_00000163050571998919524260000007652011082438400673_" style="fill:#050030;" cx="535.549" cy="595.839" r="4.859"/>
	</g>
	
		<linearGradient id="XMLID_00000127747262638095493540000011441672937232875184_" gradientUnits="userSpaceOnUse" x1="318.2824" y1="525.4911" x2="360.7863" y2="440.4833" gradientTransform="matrix(0.9467 -0.3221 0.3221 0.9467 -124.9475 169.063)">
		<stop  offset="0.1781" style="stop-color:#FFC201"/>
		<stop  offset="0.9553" style="stop-color:#FF5E01"/>
	</linearGradient>
	
		<polygon id="XMLID_00000109020259052780223040000015778704146092630430_" style="fill:url(#XMLID_00000127747262638095493540000011441672937232875184_);" points="
		320.087,529.41 386.986,482.873 360.445,471.721 	"/>
	
		<linearGradient id="XMLID_00000070097535812696053350000015836267927421560705_" gradientUnits="userSpaceOnUse" x1="372.8295" y1="541.4257" x2="402.957" y2="481.1707" gradientTransform="matrix(-0.9467 -0.3221 -0.3221 0.9467 649.2946 169.063)">
		<stop  offset="0.1781" style="stop-color:#FFC201"/>
		<stop  offset="0.9553" style="stop-color:#FF5E01"/>
	</linearGradient>
	
		<polygon id="XMLID_00000019640398236202027300000004254014249006016958_" style="fill:url(#XMLID_00000070097535812696053350000015836267927421560705_);" points="
		140.049,537.007 92.63,504.021 111.443,496.116 	"/>
	
		<linearGradient id="XMLID_00000053509437089743528590000014870348386043618729_" gradientUnits="userSpaceOnUse" x1="345.512" y1="473.6377" x2="388.0159" y2="388.6299" gradientTransform="matrix(-0.4062 0.9138 0.9138 0.4062 -88.5893 140.1966)">
		<stop  offset="0.1781" style="stop-color:#FFC201"/>
		<stop  offset="0.9553" style="stop-color:#FF5E01"/>
	</linearGradient>
	
		<polygon id="XMLID_00000154397589388596994410000016157234698695969422_" style="fill:url(#XMLID_00000053509437089743528590000014870348386043618729_);" points="
		171.684,619.751 119.3,682.177 110.589,654.739 	"/>
</g>
<polygon id="XMLID_00000036229375671997273250000015387727259460790196_" style="fill:#1E1E1E;" points="420.223,719.838 
	487.559,706.452 418.691,731.546 "/>
<polygon id="XMLID_00000118390806085557854350000011109941927591335870_" style="opacity:0.4;fill:#1E1E1E;" points="
	736.039,578.859 891.07,569.181 895.379,534.591 726.337,543.295 "/>
<linearGradient id="XMLID_00000167364721822166175100000004019071151055098788_" gradientUnits="userSpaceOnUse" x1="810.0118" y1="498.7305" x2="858.4606" y2="612.6748" gradientTransform="matrix(0.9997 -0.0249 0.0249 0.9997 -24.5789 26.8215)">
	<stop  offset="0.1781" style="stop-color:#FFC201"/>
	<stop  offset="0.9553" style="stop-color:#FF5E01"/>
</linearGradient>
<polygon id="XMLID_00000074438211232484994160000003931630706338871457_" style="fill:url(#XMLID_00000167364721822166175100000004019071151055098788_);" points="
	738.253,574.967 887.753,565.635 896.124,521.607 724.472,532.322 "/>
<text id="XMLID_00000004512732762687451660000001279650784790900405_" transform="matrix(0.9996 -0.0287 0.0287 0.9996 754.9172 647.2954)" style="fill:#FFFFFF; font-family:'Montserrat-ExtraBold'; font-size:66.5426px;">Hiring</text>
<text id="XMLID_00000182492927275505492810000013304904692874582175_" transform="matrix(0.9982 -0.0599 0.0599 0.9982 754.8053 561.0667)" style="fill:#FFFFFF; font-family:'Montserrat-ExtraBold'; font-size:24.2134px;">we are</text>
<g id="XMLID_00000071539146558830778380000000843508657963843768_">
	
		<text transform="matrix(1 0.0071 -0.0071 1 864.5536 676.2349)" style="fill:#FFFFFF; font-family:'Montserrat-Medium'; font-size:18.7748px;">contact us!</text>
</g>
</svg>
